<svg width="489" height="61" viewBox="0 0 489 61" fill="none" xmlns="http://www.w3.org/2000/svg">
<mask id="path-1-inside-1_33_4" fill="white">
<path d="M485.519 38.5104C484.918 38.5104 484.312 38.4477 483.724 38.5239C482.661 38.6584 482.127 38.2056 481.761 37.2329C479.943 32.3737 478.067 27.5369 476.217 22.6912C475.385 20.5126 474.58 18.325 473.725 16.1554C472.599 13.3089 470.017 11.9552 467.34 12.8069C465.658 13.3403 464.645 14.5865 463.98 16.1375C461.755 21.3419 459.549 26.5597 457.324 31.7641C455.935 35.014 453.729 37.4301 450.129 38.1877C445.019 39.2635 439.999 37.7036 437.77 32.1989C434.5 24.1301 431.339 16.021 428.124 7.92976C427.817 7.15874 428.002 6.84048 428.87 6.86289C430.349 6.89875 431.832 6.90772 433.316 6.86289C434.157 6.84048 434.546 7.23943 434.821 7.96562C436.373 12.0628 437.951 16.1465 439.52 20.2391C440.655 23.2022 441.808 26.1562 442.912 29.1283C443.766 31.4323 445.372 32.7906 447.841 32.9609C449.125 33.0506 450.45 32.683 451.133 31.522C452.444 29.2986 453.706 27.0348 454.764 24.6904C456.365 21.1491 457.78 17.5226 459.273 13.932C460.842 10.1442 463.564 7.64735 467.684 6.97944C471.681 6.33394 475.833 7.74597 477.976 11.6504C479.496 14.4162 480.594 17.4151 481.779 20.3512C484.045 25.9725 486.243 31.6251 488.458 37.2688C488.938 38.4836 488.915 38.506 487.599 38.5104C487.504 38.5104 487.409 38.5104 487.314 38.5104C486.713 38.5104 486.116 38.5104 485.515 38.5104H485.519Z"/>
<path d="M390.844 20.3153C390.844 24.2915 390.857 28.2631 390.844 32.2392C390.83 35.0095 388.985 37.6901 386.389 38.3222C382.808 39.1918 379.339 38.9946 376.604 36.1122C375.844 35.3098 375.242 34.3147 374.754 33.315C371.656 27.0214 368.613 20.7053 365.551 14.3938C365.443 14.1696 365.316 13.95 365.199 13.7348C364.828 13.0714 364.222 12.8203 363.521 13.0041C362.811 13.1924 362.341 13.6945 362.255 14.461C362.232 14.6762 362.255 14.9003 362.255 15.1199C362.255 22.5029 362.255 29.8903 362.255 37.2732C362.255 38.5463 362.115 38.6898 360.858 38.6942C359.786 38.6942 358.709 38.6808 357.638 38.6987C356.973 38.7077 356.643 38.3984 356.607 37.7618C356.593 37.5422 356.589 37.3225 356.589 37.1074C356.589 29.5048 356.589 21.9022 356.589 14.2951C356.589 12.0538 357.199 10.0321 358.931 8.48561C360.803 6.81358 363.105 6.72841 365.411 6.97944C368.491 7.32012 370.526 9.14456 371.864 11.8297C375.025 18.1547 378.182 24.4842 381.374 30.7958C381.641 31.3247 382.062 31.8851 382.559 32.172C383.839 32.8982 385.123 32.154 385.286 30.6927C385.318 30.4148 385.295 30.1279 385.295 29.85C385.295 22.6508 385.295 15.4561 385.295 8.257C385.295 7.06909 385.453 6.9122 386.656 6.90772C387.665 6.90323 388.678 6.90323 389.686 6.90772C390.482 6.9122 390.866 7.25288 390.857 8.11355C390.826 12.1793 390.844 16.2496 390.844 20.3153Z"/>
<path d="M394.394 22.4625C394.1 18.3385 395.551 14.7479 398.215 11.6011C400.272 9.16697 402.986 7.78183 406.074 7.1453C409.932 6.35187 413.812 6.25325 417.606 7.47253C423.204 9.27008 426.636 13.1341 427.74 18.8092C428.459 22.5074 428.436 26.2549 426.799 29.8186C424.656 34.4895 421.106 37.5422 415.991 38.3356C411.41 39.0484 406.739 39.1918 402.42 37.0088C397.876 34.7181 395.307 30.9572 394.556 25.968C394.507 25.6273 394.407 25.2911 394.398 24.9504C394.376 24.139 394.389 23.3232 394.389 22.4625H394.394ZM411.171 33.7588C417.447 34.4492 422.652 29.0341 422.426 22.3639C422.254 17.2537 418.393 11.6638 411.003 11.7579C404.826 11.8386 400.15 16.3706 399.924 22.3505C399.689 28.4917 404.32 34.3819 411.171 33.7633V33.7588Z"/>
<path d="M346.26 22.7091C346.26 17.832 346.278 12.9548 346.242 8.07769C346.237 7.20805 346.468 6.81358 347.395 6.85841C348.557 6.91668 349.724 6.89427 350.891 6.88082C351.587 6.87185 351.836 7.2215 351.827 7.87149C351.809 8.9025 351.827 9.93351 351.827 10.9645C351.827 19.6878 351.827 28.411 351.827 37.1343C351.827 38.4836 351.8 38.5104 350.448 38.5104C349.407 38.5104 348.363 38.4656 347.327 38.5239C346.486 38.5687 346.242 38.2415 346.247 37.4346C346.274 32.5261 346.26 27.6176 346.26 22.7091Z"/>
<path d="M365.253 46.0234V54.2311H361.861V40.8952C363.01 40.8952 364.168 40.8638 365.316 40.9221C365.556 40.9356 365.854 41.2269 365.99 41.469C367.541 44.1407 369.101 46.8034 370.571 49.5199C371.001 50.3133 371.145 51.2546 371.457 52.2408C372.507 48.2199 375.089 45.1089 376.907 41.6035C377.196 41.0476 377.571 40.8549 378.182 40.8818C379.15 40.9221 380.122 40.8907 381.144 40.8907V54.2222H377.806V46.1534C377.612 46.2072 377.508 46.2206 377.503 46.243C377.35 48.4978 375.952 50.1967 374.849 52.0212C373.37 54.4597 373.37 54.4463 370.499 54.3297C369.875 54.3028 369.445 54.1191 369.115 53.5542C368.486 52.4784 367.699 51.4877 367.134 50.3805C366.442 49.0223 365.913 47.5789 365.248 46.0234H365.253Z"/>
<path d="M464.039 54.2804C462.714 54.2804 461.389 54.3342 460.069 54.267C458.658 54.1953 457.532 53.478 456.781 52.3305C454.891 49.4257 454.864 45.5213 456.948 42.6748C457.826 41.478 459.105 40.8952 460.616 40.8907C462.7 40.8818 464.781 40.8907 466.865 40.8907C469.809 40.8907 471.464 42.128 472.287 44.9475C473.033 47.4937 472.812 49.9367 471.406 52.2139C470.555 53.5946 469.262 54.2715 467.63 54.2849C466.431 54.2939 465.233 54.2849 464.034 54.2849L464.039 54.2804ZM464.102 43.9524C463.315 43.9524 462.524 43.9434 461.737 43.9524C460.503 43.9614 459.526 44.5576 459.277 45.7096C459.065 46.6958 458.924 47.7716 459.092 48.7533C459.386 50.4791 460.091 51.3129 462.09 51.2681C463.605 51.2322 465.115 51.2591 466.63 51.2367C467.598 51.2188 468.33 50.775 468.706 49.8785C469.325 48.4082 469.334 46.9109 468.751 45.4272C468.367 44.45 467.607 43.9793 466.562 43.9614C465.744 43.9479 464.921 43.9614 464.102 43.9614V43.9524Z"/>
<path d="M395.384 54.2446V44.71H397.98C398.02 45.1089 398.061 45.5258 398.129 46.2341C398.997 44.5307 400.39 44.6338 401.774 44.6382C405.052 44.6562 408.335 44.6427 411.614 44.6427C414.192 44.6427 415.557 45.7589 415.761 48.323C415.914 50.246 415.792 52.187 415.792 54.1997H413.183C413.156 53.8501 413.124 53.4915 413.084 53.0029C411.239 55.1546 408.824 54.1863 406.635 54.2401C405.509 54.267 404.962 53.348 404.713 52.2722C404.333 50.6181 405.229 48.5919 407.408 48.7488C409.1 48.8699 410.804 48.7713 412.491 48.7713C412.69 47.8433 412.279 47.5206 411.496 47.5206C407.68 47.5206 403.863 47.5206 400.046 47.5206C399.309 47.5206 398.803 47.8568 398.758 48.5964C398.672 50.0578 398.653 51.5236 398.613 52.9894C398.599 53.4108 398.613 53.8322 398.613 54.2446H395.384ZM412.518 50.3402C411.198 50.3402 409.941 50.3088 408.684 50.3671C408.412 50.3805 408.159 50.7212 407.901 50.9095C408.141 51.1022 408.372 51.4474 408.62 51.4608C409.624 51.5191 410.633 51.4922 411.637 51.4608C412.274 51.4429 412.618 51.1112 412.518 50.3402Z"/>
<path d="M430.43 40.5232H433.623V46.0099C435.201 44.2034 437.069 44.4545 438.873 44.8669C440.352 45.2031 441.256 46.3103 441.388 47.803C441.55 49.6992 441.532 51.6088 441.6 53.5139C441.618 54.0608 441.388 54.3253 440.822 54.3163C440.035 54.3028 439.253 54.3163 438.322 54.3163C438.322 52.7743 438.335 51.286 438.313 49.7933C438.304 49.3361 438.258 48.8564 438.109 48.4216C437.729 47.2965 437.024 47.4937 434.948 47.5564C434.066 47.5833 433.65 48.2244 433.65 49.094C433.65 50.4388 433.65 51.7836 433.65 53.1284C433.65 53.4691 433.65 53.8053 433.65 54.2849H430.44V40.5232H430.43Z"/>
<path d="M390.355 48.7757C390.464 47.8523 390.057 47.5116 389.225 47.5206C387.271 47.534 385.313 47.5206 383.278 47.5206V44.6607C385.661 44.6607 388.026 44.5351 390.373 44.701C392.232 44.831 393.426 46.2117 393.611 48.3813C393.774 50.2998 393.647 52.2408 393.647 54.2311H390.998C390.966 53.8277 390.939 53.4332 390.903 52.9715C389.017 55.177 386.53 54.2804 384.255 54.2266C383.066 54.1997 382.32 52.7115 382.451 51.1471C382.564 49.7754 383.5 48.7937 384.766 48.7802C386.625 48.7623 388.483 48.7757 390.351 48.7757H390.355ZM390.369 50.3402C389.053 50.3402 387.796 50.3088 386.539 50.3626C386.263 50.376 386.005 50.6943 385.738 50.8691C385.996 51.0753 386.24 51.4384 386.512 51.4564C387.448 51.5281 388.397 51.4833 389.338 51.4743C390.016 51.4698 390.383 51.1426 390.369 50.3312V50.3402Z"/>
<path d="M425.438 54.258C425.438 53.6125 425.456 52.9715 425.438 52.3305C425.393 51.0574 425.492 49.7485 425.221 48.5247C424.85 46.8258 423.326 47.7044 422.291 47.543C421.535 47.4265 421.006 47.8209 420.952 48.6323C420.871 49.874 420.816 51.1157 420.767 52.3574C420.744 52.9491 420.767 53.5408 420.767 54.2087H417.542V44.7145H420.134C420.201 45.0372 420.265 45.3375 420.333 45.6558C422.444 44.3648 424.611 44.2214 426.822 45.212C427.957 45.7186 428.481 46.6868 428.536 47.9061C428.631 49.9905 428.721 52.075 428.816 54.258H425.438Z"/>
<path d="M450.83 48.7757C450.789 48.3319 450.757 47.9778 450.717 47.5699C451.675 47.2875 452.625 47.0051 453.62 46.7092C454.488 49.1971 453.964 51.6984 454.117 54.2266H451.472C451.413 53.8546 451.354 53.4736 451.259 52.855C450.491 54.267 449.328 54.3656 448.103 54.3387C447.063 54.3163 446.023 54.3432 444.983 54.2939C443.911 54.2446 443.178 53.5408 443.07 52.4829C443.011 51.9315 443.007 51.3667 443.061 50.8153C443.196 49.4661 443.983 48.7892 445.372 48.7847C447.162 48.7757 448.958 48.7847 450.834 48.7847L450.83 48.7757ZM450.776 50.3402C449.491 50.3402 448.207 50.3133 446.923 50.3626C446.66 50.3716 446.412 50.654 446.154 50.8109C446.389 51.0395 446.611 51.4474 446.864 51.4608C447.868 51.5281 448.881 51.4967 449.885 51.4608C450.522 51.4384 450.866 51.1067 450.776 50.3402Z"/>
<path d="M451.16 44.7324C450.988 45.5482 450.861 46.3103 450.644 47.0499C450.586 47.2472 450.265 47.4982 450.061 47.5027C447.958 47.534 445.855 47.5251 443.689 47.5251V44.7369H451.16V44.7324Z"/>
</mask>
<path d="M485.519 38.5104C484.918 38.5104 484.312 38.4477 483.724 38.5239C482.661 38.6584 482.127 38.2056 481.761 37.2329C479.943 32.3737 478.067 27.5369 476.217 22.6912C475.385 20.5126 474.58 18.325 473.725 16.1554C472.599 13.3089 470.017 11.9552 467.34 12.8069C465.658 13.3403 464.645 14.5865 463.98 16.1375C461.755 21.3419 459.549 26.5597 457.324 31.7641C455.935 35.014 453.729 37.4301 450.129 38.1877C445.019 39.2635 439.999 37.7036 437.77 32.1989C434.5 24.1301 431.339 16.021 428.124 7.92976C427.817 7.15874 428.002 6.84048 428.87 6.86289C430.349 6.89875 431.832 6.90772 433.316 6.86289C434.157 6.84048 434.546 7.23943 434.821 7.96562C436.373 12.0628 437.951 16.1465 439.52 20.2391C440.655 23.2022 441.808 26.1562 442.912 29.1283C443.766 31.4323 445.372 32.7906 447.841 32.9609C449.125 33.0506 450.45 32.683 451.133 31.522C452.444 29.2986 453.706 27.0348 454.764 24.6904C456.365 21.1491 457.78 17.5226 459.273 13.932C460.842 10.1442 463.564 7.64735 467.684 6.97944C471.681 6.33394 475.833 7.74597 477.976 11.6504C479.496 14.4162 480.594 17.4151 481.779 20.3512C484.045 25.9725 486.243 31.6251 488.458 37.2688C488.938 38.4836 488.915 38.506 487.599 38.5104C487.504 38.5104 487.409 38.5104 487.314 38.5104C486.713 38.5104 486.116 38.5104 485.515 38.5104H485.519Z" fill="white"/>
<path d="M390.844 20.3153C390.844 24.2915 390.857 28.2631 390.844 32.2392C390.83 35.0095 388.985 37.6901 386.389 38.3222C382.808 39.1918 379.339 38.9946 376.604 36.1122C375.844 35.3098 375.242 34.3147 374.754 33.315C371.656 27.0214 368.613 20.7053 365.551 14.3938C365.443 14.1696 365.316 13.95 365.199 13.7348C364.828 13.0714 364.222 12.8203 363.521 13.0041C362.811 13.1924 362.341 13.6945 362.255 14.461C362.232 14.6762 362.255 14.9003 362.255 15.1199C362.255 22.5029 362.255 29.8903 362.255 37.2732C362.255 38.5463 362.115 38.6898 360.858 38.6942C359.786 38.6942 358.709 38.6808 357.638 38.6987C356.973 38.7077 356.643 38.3984 356.607 37.7618C356.593 37.5422 356.589 37.3225 356.589 37.1074C356.589 29.5048 356.589 21.9022 356.589 14.2951C356.589 12.0538 357.199 10.0321 358.931 8.48561C360.803 6.81358 363.105 6.72841 365.411 6.97944C368.491 7.32012 370.526 9.14456 371.864 11.8297C375.025 18.1547 378.182 24.4842 381.374 30.7958C381.641 31.3247 382.062 31.8851 382.559 32.172C383.839 32.8982 385.123 32.154 385.286 30.6927C385.318 30.4148 385.295 30.1279 385.295 29.85C385.295 22.6508 385.295 15.4561 385.295 8.257C385.295 7.06909 385.453 6.9122 386.656 6.90772C387.665 6.90323 388.678 6.90323 389.686 6.90772C390.482 6.9122 390.866 7.25288 390.857 8.11355C390.826 12.1793 390.844 16.2496 390.844 20.3153Z" fill="white"/>
<path d="M394.394 22.4625C394.1 18.3385 395.551 14.7479 398.215 11.6011C400.272 9.16697 402.986 7.78183 406.074 7.1453C409.932 6.35187 413.812 6.25325 417.606 7.47253C423.204 9.27008 426.636 13.1341 427.74 18.8092C428.459 22.5074 428.436 26.2549 426.799 29.8186C424.656 34.4895 421.106 37.5422 415.991 38.3356C411.41 39.0484 406.739 39.1918 402.42 37.0088C397.876 34.7181 395.307 30.9572 394.556 25.968C394.507 25.6273 394.407 25.2911 394.398 24.9504C394.376 24.139 394.389 23.3232 394.389 22.4625H394.394ZM411.171 33.7588C417.447 34.4492 422.652 29.0341 422.426 22.3639C422.254 17.2537 418.393 11.6638 411.003 11.7579C404.826 11.8386 400.15 16.3706 399.924 22.3505C399.689 28.4917 404.32 34.3819 411.171 33.7633V33.7588Z" fill="white"/>
<path d="M346.26 22.7091C346.26 17.832 346.278 12.9548 346.242 8.07769C346.237 7.20805 346.468 6.81358 347.395 6.85841C348.557 6.91668 349.724 6.89427 350.891 6.88082C351.587 6.87185 351.836 7.2215 351.827 7.87149C351.809 8.9025 351.827 9.93351 351.827 10.9645C351.827 19.6878 351.827 28.411 351.827 37.1343C351.827 38.4836 351.8 38.5104 350.448 38.5104C349.407 38.5104 348.363 38.4656 347.327 38.5239C346.486 38.5687 346.242 38.2415 346.247 37.4346C346.274 32.5261 346.26 27.6176 346.26 22.7091Z" fill="white"/>
<path d="M365.253 46.0234V54.2311H361.861V40.8952C363.01 40.8952 364.168 40.8638 365.316 40.9221C365.556 40.9356 365.854 41.2269 365.99 41.469C367.541 44.1407 369.101 46.8034 370.571 49.5199C371.001 50.3133 371.145 51.2546 371.457 52.2408C372.507 48.2199 375.089 45.1089 376.907 41.6035C377.196 41.0476 377.571 40.8549 378.182 40.8818C379.15 40.9221 380.122 40.8907 381.144 40.8907V54.2222H377.806V46.1534C377.612 46.2072 377.508 46.2206 377.503 46.243C377.35 48.4978 375.952 50.1967 374.849 52.0212C373.37 54.4597 373.37 54.4463 370.499 54.3297C369.875 54.3028 369.445 54.1191 369.115 53.5542C368.486 52.4784 367.699 51.4877 367.134 50.3805C366.442 49.0223 365.913 47.5789 365.248 46.0234H365.253Z" fill="white"/>
<path d="M464.039 54.2804C462.714 54.2804 461.389 54.3342 460.069 54.267C458.658 54.1953 457.532 53.478 456.781 52.3305C454.891 49.4257 454.864 45.5213 456.948 42.6748C457.826 41.478 459.105 40.8952 460.616 40.8907C462.7 40.8818 464.781 40.8907 466.865 40.8907C469.809 40.8907 471.464 42.128 472.287 44.9475C473.033 47.4937 472.812 49.9367 471.406 52.2139C470.555 53.5946 469.262 54.2715 467.63 54.2849C466.431 54.2939 465.233 54.2849 464.034 54.2849L464.039 54.2804ZM464.102 43.9524C463.315 43.9524 462.524 43.9434 461.737 43.9524C460.503 43.9614 459.526 44.5576 459.277 45.7096C459.065 46.6958 458.924 47.7716 459.092 48.7533C459.386 50.4791 460.091 51.3129 462.09 51.2681C463.605 51.2322 465.115 51.2591 466.63 51.2367C467.598 51.2188 468.33 50.775 468.706 49.8785C469.325 48.4082 469.334 46.9109 468.751 45.4272C468.367 44.45 467.607 43.9793 466.562 43.9614C465.744 43.9479 464.921 43.9614 464.102 43.9614V43.9524Z" fill="white"/>
<path d="M395.384 54.2446V44.71H397.98C398.02 45.1089 398.061 45.5258 398.129 46.2341C398.997 44.5307 400.39 44.6338 401.774 44.6382C405.052 44.6562 408.335 44.6427 411.614 44.6427C414.192 44.6427 415.557 45.7589 415.761 48.323C415.914 50.246 415.792 52.187 415.792 54.1997H413.183C413.156 53.8501 413.124 53.4915 413.084 53.0029C411.239 55.1546 408.824 54.1863 406.635 54.2401C405.509 54.267 404.962 53.348 404.713 52.2722C404.333 50.6181 405.229 48.5919 407.408 48.7488C409.1 48.8699 410.804 48.7713 412.491 48.7713C412.69 47.8433 412.279 47.5206 411.496 47.5206C407.68 47.5206 403.863 47.5206 400.046 47.5206C399.309 47.5206 398.803 47.8568 398.758 48.5964C398.672 50.0578 398.653 51.5236 398.613 52.9894C398.599 53.4108 398.613 53.8322 398.613 54.2446H395.384ZM412.518 50.3402C411.198 50.3402 409.941 50.3088 408.684 50.3671C408.412 50.3805 408.159 50.7212 407.901 50.9095C408.141 51.1022 408.372 51.4474 408.62 51.4608C409.624 51.5191 410.633 51.4922 411.637 51.4608C412.274 51.4429 412.618 51.1112 412.518 50.3402Z" fill="white"/>
<path d="M430.43 40.5232H433.623V46.0099C435.201 44.2034 437.069 44.4545 438.873 44.8669C440.352 45.2031 441.256 46.3103 441.388 47.803C441.55 49.6992 441.532 51.6088 441.6 53.5139C441.618 54.0608 441.388 54.3253 440.822 54.3163C440.035 54.3028 439.253 54.3163 438.322 54.3163C438.322 52.7743 438.335 51.286 438.313 49.7933C438.304 49.3361 438.258 48.8564 438.109 48.4216C437.729 47.2965 437.024 47.4937 434.948 47.5564C434.066 47.5833 433.65 48.2244 433.65 49.094C433.65 50.4388 433.65 51.7836 433.65 53.1284C433.65 53.4691 433.65 53.8053 433.65 54.2849H430.44V40.5232H430.43Z" fill="white"/>
<path d="M390.355 48.7757C390.464 47.8523 390.057 47.5116 389.225 47.5206C387.271 47.534 385.313 47.5206 383.278 47.5206V44.6607C385.661 44.6607 388.026 44.5351 390.373 44.701C392.232 44.831 393.426 46.2117 393.611 48.3813C393.774 50.2998 393.647 52.2408 393.647 54.2311H390.998C390.966 53.8277 390.939 53.4332 390.903 52.9715C389.017 55.177 386.53 54.2804 384.255 54.2266C383.066 54.1997 382.32 52.7115 382.451 51.1471C382.564 49.7754 383.5 48.7937 384.766 48.7802C386.625 48.7623 388.483 48.7757 390.351 48.7757H390.355ZM390.369 50.3402C389.053 50.3402 387.796 50.3088 386.539 50.3626C386.263 50.376 386.005 50.6943 385.738 50.8691C385.996 51.0753 386.24 51.4384 386.512 51.4564C387.448 51.5281 388.397 51.4833 389.338 51.4743C390.016 51.4698 390.383 51.1426 390.369 50.3312V50.3402Z" fill="white"/>
<path d="M425.438 54.258C425.438 53.6125 425.456 52.9715 425.438 52.3305C425.393 51.0574 425.492 49.7485 425.221 48.5247C424.85 46.8258 423.326 47.7044 422.291 47.543C421.535 47.4265 421.006 47.8209 420.952 48.6323C420.871 49.874 420.816 51.1157 420.767 52.3574C420.744 52.9491 420.767 53.5408 420.767 54.2087H417.542V44.7145H420.134C420.201 45.0372 420.265 45.3375 420.333 45.6558C422.444 44.3648 424.611 44.2214 426.822 45.212C427.957 45.7186 428.481 46.6868 428.536 47.9061C428.631 49.9905 428.721 52.075 428.816 54.258H425.438Z" fill="white"/>
<path d="M450.83 48.7757C450.789 48.3319 450.757 47.9778 450.717 47.5699C451.675 47.2875 452.625 47.0051 453.62 46.7092C454.488 49.1971 453.964 51.6984 454.117 54.2266H451.472C451.413 53.8546 451.354 53.4736 451.259 52.855C450.491 54.267 449.328 54.3656 448.103 54.3387C447.063 54.3163 446.023 54.3432 444.983 54.2939C443.911 54.2446 443.178 53.5408 443.07 52.4829C443.011 51.9315 443.007 51.3667 443.061 50.8153C443.196 49.4661 443.983 48.7892 445.372 48.7847C447.162 48.7757 448.958 48.7847 450.834 48.7847L450.83 48.7757ZM450.776 50.3402C449.491 50.3402 448.207 50.3133 446.923 50.3626C446.66 50.3716 446.412 50.654 446.154 50.8109C446.389 51.0395 446.611 51.4474 446.864 51.4608C447.868 51.5281 448.881 51.4967 449.885 51.4608C450.522 51.4384 450.866 51.1067 450.776 50.3402Z" fill="white"/>
<path d="M451.16 44.7324C450.988 45.5482 450.861 46.3103 450.644 47.0499C450.586 47.2472 450.265 47.4982 450.061 47.5027C447.958 47.534 445.855 47.5251 443.689 47.5251V44.7369H451.16V44.7324Z" fill="white"/>
<path d="M485.519 38.5104C484.918 38.5104 484.312 38.4477 483.724 38.5239C482.661 38.6584 482.127 38.2056 481.761 37.2329C479.943 32.3737 478.067 27.5369 476.217 22.6912C475.385 20.5126 474.58 18.325 473.725 16.1554C472.599 13.3089 470.017 11.9552 467.34 12.8069C465.658 13.3403 464.645 14.5865 463.98 16.1375C461.755 21.3419 459.549 26.5597 457.324 31.7641C455.935 35.014 453.729 37.4301 450.129 38.1877C445.019 39.2635 439.999 37.7036 437.77 32.1989C434.5 24.1301 431.339 16.021 428.124 7.92976C427.817 7.15874 428.002 6.84048 428.87 6.86289C430.349 6.89875 431.832 6.90772 433.316 6.86289C434.157 6.84048 434.546 7.23943 434.821 7.96562C436.373 12.0628 437.951 16.1465 439.52 20.2391C440.655 23.2022 441.808 26.1562 442.912 29.1283C443.766 31.4323 445.372 32.7906 447.841 32.9609C449.125 33.0506 450.45 32.683 451.133 31.522C452.444 29.2986 453.706 27.0348 454.764 24.6904C456.365 21.1491 457.78 17.5226 459.273 13.932C460.842 10.1442 463.564 7.64735 467.684 6.97944C471.681 6.33394 475.833 7.74597 477.976 11.6504C479.496 14.4162 480.594 17.4151 481.779 20.3512C484.045 25.9725 486.243 31.6251 488.458 37.2688C488.938 38.4836 488.915 38.506 487.599 38.5104C487.504 38.5104 487.409 38.5104 487.314 38.5104C486.713 38.5104 486.116 38.5104 485.515 38.5104H485.519Z" stroke="white" stroke-width="2" mask="url(#path-1-inside-1_33_4)"/>
<path d="M390.844 20.3153C390.844 24.2915 390.857 28.2631 390.844 32.2392C390.83 35.0095 388.985 37.6901 386.389 38.3222C382.808 39.1918 379.339 38.9946 376.604 36.1122C375.844 35.3098 375.242 34.3147 374.754 33.315C371.656 27.0214 368.613 20.7053 365.551 14.3938C365.443 14.1696 365.316 13.95 365.199 13.7348C364.828 13.0714 364.222 12.8203 363.521 13.0041C362.811 13.1924 362.341 13.6945 362.255 14.461C362.232 14.6762 362.255 14.9003 362.255 15.1199C362.255 22.5029 362.255 29.8903 362.255 37.2732C362.255 38.5463 362.115 38.6898 360.858 38.6942C359.786 38.6942 358.709 38.6808 357.638 38.6987C356.973 38.7077 356.643 38.3984 356.607 37.7618C356.593 37.5422 356.589 37.3225 356.589 37.1074C356.589 29.5048 356.589 21.9022 356.589 14.2951C356.589 12.0538 357.199 10.0321 358.931 8.48561C360.803 6.81358 363.105 6.72841 365.411 6.97944C368.491 7.32012 370.526 9.14456 371.864 11.8297C375.025 18.1547 378.182 24.4842 381.374 30.7958C381.641 31.3247 382.062 31.8851 382.559 32.172C383.839 32.8982 385.123 32.154 385.286 30.6927C385.318 30.4148 385.295 30.1279 385.295 29.85C385.295 22.6508 385.295 15.4561 385.295 8.257C385.295 7.06909 385.453 6.9122 386.656 6.90772C387.665 6.90323 388.678 6.90323 389.686 6.90772C390.482 6.9122 390.866 7.25288 390.857 8.11355C390.826 12.1793 390.844 16.2496 390.844 20.3153Z" stroke="white" stroke-width="2" mask="url(#path-1-inside-1_33_4)"/>
<path d="M394.394 22.4625C394.1 18.3385 395.551 14.7479 398.215 11.6011C400.272 9.16697 402.986 7.78183 406.074 7.1453C409.932 6.35187 413.812 6.25325 417.606 7.47253C423.204 9.27008 426.636 13.1341 427.74 18.8092C428.459 22.5074 428.436 26.2549 426.799 29.8186C424.656 34.4895 421.106 37.5422 415.991 38.3356C411.41 39.0484 406.739 39.1918 402.42 37.0088C397.876 34.7181 395.307 30.9572 394.556 25.968C394.507 25.6273 394.407 25.2911 394.398 24.9504C394.376 24.139 394.389 23.3232 394.389 22.4625H394.394ZM411.171 33.7588C417.447 34.4492 422.652 29.0341 422.426 22.3639C422.254 17.2537 418.393 11.6638 411.003 11.7579C404.826 11.8386 400.15 16.3706 399.924 22.3505C399.689 28.4917 404.32 34.3819 411.171 33.7633V33.7588Z" stroke="white" stroke-width="2" mask="url(#path-1-inside-1_33_4)"/>
<path d="M346.26 22.7091C346.26 17.832 346.278 12.9548 346.242 8.07769C346.237 7.20805 346.468 6.81358 347.395 6.85841C348.557 6.91668 349.724 6.89427 350.891 6.88082C351.587 6.87185 351.836 7.2215 351.827 7.87149C351.809 8.9025 351.827 9.93351 351.827 10.9645C351.827 19.6878 351.827 28.411 351.827 37.1343C351.827 38.4836 351.8 38.5104 350.448 38.5104C349.407 38.5104 348.363 38.4656 347.327 38.5239C346.486 38.5687 346.242 38.2415 346.247 37.4346C346.274 32.5261 346.26 27.6176 346.26 22.7091Z" stroke="white" stroke-width="2" mask="url(#path-1-inside-1_33_4)"/>
<path d="M365.253 46.0234V54.2311H361.861V40.8952C363.01 40.8952 364.168 40.8638 365.316 40.9221C365.556 40.9356 365.854 41.2269 365.99 41.469C367.541 44.1407 369.101 46.8034 370.571 49.5199C371.001 50.3133 371.145 51.2546 371.457 52.2408C372.507 48.2199 375.089 45.1089 376.907 41.6035C377.196 41.0476 377.571 40.8549 378.182 40.8818C379.15 40.9221 380.122 40.8907 381.144 40.8907V54.2222H377.806V46.1534C377.612 46.2072 377.508 46.2206 377.503 46.243C377.35 48.4978 375.952 50.1967 374.849 52.0212C373.37 54.4597 373.37 54.4463 370.499 54.3297C369.875 54.3028 369.445 54.1191 369.115 53.5542C368.486 52.4784 367.699 51.4877 367.134 50.3805C366.442 49.0223 365.913 47.5789 365.248 46.0234H365.253Z" stroke="white" stroke-width="2" mask="url(#path-1-inside-1_33_4)"/>
<path d="M464.039 54.2804C462.714 54.2804 461.389 54.3342 460.069 54.267C458.658 54.1953 457.532 53.478 456.781 52.3305C454.891 49.4257 454.864 45.5213 456.948 42.6748C457.826 41.478 459.105 40.8952 460.616 40.8907C462.7 40.8818 464.781 40.8907 466.865 40.8907C469.809 40.8907 471.464 42.128 472.287 44.9475C473.033 47.4937 472.812 49.9367 471.406 52.2139C470.555 53.5946 469.262 54.2715 467.63 54.2849C466.431 54.2939 465.233 54.2849 464.034 54.2849L464.039 54.2804ZM464.102 43.9524C463.315 43.9524 462.524 43.9434 461.737 43.9524C460.503 43.9614 459.526 44.5576 459.277 45.7096C459.065 46.6958 458.924 47.7716 459.092 48.7533C459.386 50.4791 460.091 51.3129 462.09 51.2681C463.605 51.2322 465.115 51.2591 466.63 51.2367C467.598 51.2188 468.33 50.775 468.706 49.8785C469.325 48.4082 469.334 46.9109 468.751 45.4272C468.367 44.45 467.607 43.9793 466.562 43.9614C465.744 43.9479 464.921 43.9614 464.102 43.9614V43.9524Z" stroke="white" stroke-width="2" mask="url(#path-1-inside-1_33_4)"/>
<path d="M395.384 54.2446V44.71H397.98C398.02 45.1089 398.061 45.5258 398.129 46.2341C398.997 44.5307 400.39 44.6338 401.774 44.6382C405.052 44.6562 408.335 44.6427 411.614 44.6427C414.192 44.6427 415.557 45.7589 415.761 48.323C415.914 50.246 415.792 52.187 415.792 54.1997H413.183C413.156 53.8501 413.124 53.4915 413.084 53.0029C411.239 55.1546 408.824 54.1863 406.635 54.2401C405.509 54.267 404.962 53.348 404.713 52.2722C404.333 50.6181 405.229 48.5919 407.408 48.7488C409.1 48.8699 410.804 48.7713 412.491 48.7713C412.69 47.8433 412.279 47.5206 411.496 47.5206C407.68 47.5206 403.863 47.5206 400.046 47.5206C399.309 47.5206 398.803 47.8568 398.758 48.5964C398.672 50.0578 398.653 51.5236 398.613 52.9894C398.599 53.4108 398.613 53.8322 398.613 54.2446H395.384ZM412.518 50.3402C411.198 50.3402 409.941 50.3088 408.684 50.3671C408.412 50.3805 408.159 50.7212 407.901 50.9095C408.141 51.1022 408.372 51.4474 408.62 51.4608C409.624 51.5191 410.633 51.4922 411.637 51.4608C412.274 51.4429 412.618 51.1112 412.518 50.3402Z" stroke="white" stroke-width="2" mask="url(#path-1-inside-1_33_4)"/>
<path d="M430.43 40.5232H433.623V46.0099C435.201 44.2034 437.069 44.4545 438.873 44.8669C440.352 45.2031 441.256 46.3103 441.388 47.803C441.55 49.6992 441.532 51.6088 441.6 53.5139C441.618 54.0608 441.388 54.3253 440.822 54.3163C440.035 54.3028 439.253 54.3163 438.322 54.3163C438.322 52.7743 438.335 51.286 438.313 49.7933C438.304 49.3361 438.258 48.8564 438.109 48.4216C437.729 47.2965 437.024 47.4937 434.948 47.5564C434.066 47.5833 433.65 48.2244 433.65 49.094C433.65 50.4388 433.65 51.7836 433.65 53.1284C433.65 53.4691 433.65 53.8053 433.65 54.2849H430.44V40.5232H430.43Z" stroke="white" stroke-width="2" mask="url(#path-1-inside-1_33_4)"/>
<path d="M390.355 48.7757C390.464 47.8523 390.057 47.5116 389.225 47.5206C387.271 47.534 385.313 47.5206 383.278 47.5206V44.6607C385.661 44.6607 388.026 44.5351 390.373 44.701C392.232 44.831 393.426 46.2117 393.611 48.3813C393.774 50.2998 393.647 52.2408 393.647 54.2311H390.998C390.966 53.8277 390.939 53.4332 390.903 52.9715C389.017 55.177 386.53 54.2804 384.255 54.2266C383.066 54.1997 382.32 52.7115 382.451 51.1471C382.564 49.7754 383.5 48.7937 384.766 48.7802C386.625 48.7623 388.483 48.7757 390.351 48.7757H390.355ZM390.369 50.3402C389.053 50.3402 387.796 50.3088 386.539 50.3626C386.263 50.376 386.005 50.6943 385.738 50.8691C385.996 51.0753 386.24 51.4384 386.512 51.4564C387.448 51.5281 388.397 51.4833 389.338 51.4743C390.016 51.4698 390.383 51.1426 390.369 50.3312V50.3402Z" stroke="white" stroke-width="2" mask="url(#path-1-inside-1_33_4)"/>
<path d="M425.438 54.258C425.438 53.6125 425.456 52.9715 425.438 52.3305C425.393 51.0574 425.492 49.7485 425.221 48.5247C424.85 46.8258 423.326 47.7044 422.291 47.543C421.535 47.4265 421.006 47.8209 420.952 48.6323C420.871 49.874 420.816 51.1157 420.767 52.3574C420.744 52.9491 420.767 53.5408 420.767 54.2087H417.542V44.7145H420.134C420.201 45.0372 420.265 45.3375 420.333 45.6558C422.444 44.3648 424.611 44.2214 426.822 45.212C427.957 45.7186 428.481 46.6868 428.536 47.9061C428.631 49.9905 428.721 52.075 428.816 54.258H425.438Z" stroke="white" stroke-width="2" mask="url(#path-1-inside-1_33_4)"/>
<path d="M450.83 48.7757C450.789 48.3319 450.757 47.9778 450.717 47.5699C451.675 47.2875 452.625 47.0051 453.62 46.7092C454.488 49.1971 453.964 51.6984 454.117 54.2266H451.472C451.413 53.8546 451.354 53.4736 451.259 52.855C450.491 54.267 449.328 54.3656 448.103 54.3387C447.063 54.3163 446.023 54.3432 444.983 54.2939C443.911 54.2446 443.178 53.5408 443.07 52.4829C443.011 51.9315 443.007 51.3667 443.061 50.8153C443.196 49.4661 443.983 48.7892 445.372 48.7847C447.162 48.7757 448.958 48.7847 450.834 48.7847L450.83 48.7757ZM450.776 50.3402C449.491 50.3402 448.207 50.3133 446.923 50.3626C446.66 50.3716 446.412 50.654 446.154 50.8109C446.389 51.0395 446.611 51.4474 446.864 51.4608C447.868 51.5281 448.881 51.4967 449.885 51.4608C450.522 51.4384 450.866 51.1067 450.776 50.3402Z" stroke="white" stroke-width="2" mask="url(#path-1-inside-1_33_4)"/>
<path d="M451.16 44.7324C450.988 45.5482 450.861 46.3103 450.644 47.0499C450.586 47.2472 450.265 47.4982 450.061 47.5027C447.958 47.534 445.855 47.5251 443.689 47.5251V44.7369H451.16V44.7324Z" stroke="white" stroke-width="2" mask="url(#path-1-inside-1_33_4)"/>
<path d="M310.865 0V61" stroke="white" stroke-width="3" stroke-miterlimit="10"/>
<mask id="path-3-inside-2_33_4" fill="white">
<path d="M75.4879 50.8834L69.469 44.8023V25.7638H62.9254V17.6312H69.469V8.77221H79.8744V17.6312H91.0621V25.7638H79.8744V41.4304L80.7245 42.2894H91.5867V50.8834H75.4879Z"/>
<path d="M97.5378 50.8834V17.6312H105.85V20.2766H107.093L110.168 17.6312H122.206V26.2253H111.018L107.943 28.7381V50.8834H97.5378Z"/>
<path d="M126.131 12.409V4.60541H136.794V12.4045H126.131V12.409ZM126.262 50.8834V17.6312H136.668V50.8834H126.262Z"/>
<path d="M146.806 50.8834V12.674H140.263V4.60541H157.212V50.8788H146.806V50.8834Z"/>
<path d="M166.5 50.8834V4.60541H176.906V19.6095H177.561L179.981 17.6267H193.85L201.113 24.9643V50.8788H190.707V28.4686L188.482 26.2207H180.239L176.901 28.93V50.8788H166.496L166.5 50.8834Z"/>
<path d="M213.806 50.8834L207.787 44.8023V36.3407L214.005 30.0585H232.193V27.9432L230.294 25.9603H212.237V17.6312H235.856L242.594 24.4388V50.8834H234.283V48.1741H233.233L230.027 50.8834H213.802H213.806ZM229.182 42.9519L232.193 40.5075V36.8067H219.825L218.188 38.4607V41.764L219.364 42.9519H229.182Z"/>
<path d="M250.449 50.8834V42.9519H271.454L272.63 41.764V39.4521L271.454 38.1957H255.948L249.929 32.1785V23.6484L255.948 17.6312H281.204V25.5628H261.51L260.335 26.7507V29.0625L261.51 30.2504H277.017L283.036 36.3316V44.7931L277.017 50.8743H250.454L250.449 50.8834Z"/>
<path d="M39.8535 7.11828H7.46152L0 15.2463L0.393425 47.7766L7.65597 54.7213H38.8722L47.1206 47.7766L47.514 14.8488L39.8581 7.11371L39.8535 7.11828ZM41.2464 44.8936L39.6817 46.2095H35.0103L33.5994 44.8662L33.5904 44.1169H16.0717L12.0198 40.0232V33.3253L16.0717 29.2316H28.598L30.8093 26.9974V23.4611L28.598 21.2269H13.9191L13.9101 22.0996L12.3454 23.42H7.67406L6.26315 22.0722L6.20436 17.1743L7.61527 15.6346H12.5127L13.9643 17.1058L13.9553 18.0653H30.2576L34.3094 22.159V28.2995L30.2576 32.3932H17.7313L15.52 34.6274V38.7211L17.7313 40.9553H33.5542L33.5452 39.9684L34.9561 38.4287H39.849L41.3051 39.8953L41.2464 44.8936Z"/>
</mask>
<path d="M75.4879 50.8834L69.469 44.8023V25.7638H62.9254V17.6312H69.469V8.77221H79.8744V17.6312H91.0621V25.7638H79.8744V41.4304L80.7245 42.2894H91.5867V50.8834H75.4879Z" fill="white"/>
<path d="M97.5378 50.8834V17.6312H105.85V20.2766H107.093L110.168 17.6312H122.206V26.2253H111.018L107.943 28.7381V50.8834H97.5378Z" fill="white"/>
<path d="M126.131 12.409V4.60541H136.794V12.4045H126.131V12.409ZM126.262 50.8834V17.6312H136.668V50.8834H126.262Z" fill="white"/>
<path d="M146.806 50.8834V12.674H140.263V4.60541H157.212V50.8788H146.806V50.8834Z" fill="white"/>
<path d="M166.5 50.8834V4.60541H176.906V19.6095H177.561L179.981 17.6267H193.85L201.113 24.9643V50.8788H190.707V28.4686L188.482 26.2207H180.239L176.901 28.93V50.8788H166.496L166.5 50.8834Z" fill="white"/>
<path d="M213.806 50.8834L207.787 44.8023V36.3407L214.005 30.0585H232.193V27.9432L230.294 25.9603H212.237V17.6312H235.856L242.594 24.4388V50.8834H234.283V48.1741H233.233L230.027 50.8834H213.802H213.806ZM229.182 42.9519L232.193 40.5075V36.8067H219.825L218.188 38.4607V41.764L219.364 42.9519H229.182Z" fill="white"/>
<path d="M250.449 50.8834V42.9519H271.454L272.63 41.764V39.4521L271.454 38.1957H255.948L249.929 32.1785V23.6484L255.948 17.6312H281.204V25.5628H261.51L260.335 26.7507V29.0625L261.51 30.2504H277.017L283.036 36.3316V44.7931L277.017 50.8743H250.454L250.449 50.8834Z" fill="white"/>
<path d="M39.8535 7.11828H7.46152L0 15.2463L0.393425 47.7766L7.65597 54.7213H38.8722L47.1206 47.7766L47.514 14.8488L39.8581 7.11371L39.8535 7.11828ZM41.2464 44.8936L39.6817 46.2095H35.0103L33.5994 44.8662L33.5904 44.1169H16.0717L12.0198 40.0232V33.3253L16.0717 29.2316H28.598L30.8093 26.9974V23.4611L28.598 21.2269H13.9191L13.9101 22.0996L12.3454 23.42H7.67406L6.26315 22.0722L6.20436 17.1743L7.61527 15.6346H12.5127L13.9643 17.1058L13.9553 18.0653H30.2576L34.3094 22.159V28.2995L30.2576 32.3932H17.7313L15.52 34.6274V38.7211L17.7313 40.9553H33.5542L33.5452 39.9684L34.9561 38.4287H39.849L41.3051 39.8953L41.2464 44.8936Z" fill="white"/>
<path d="M75.4879 50.8834L69.469 44.8023V25.7638H62.9254V17.6312H69.469V8.77221H79.8744V17.6312H91.0621V25.7638H79.8744V41.4304L80.7245 42.2894H91.5867V50.8834H75.4879Z" stroke="white" stroke-width="2" mask="url(#path-3-inside-2_33_4)"/>
<path d="M97.5378 50.8834V17.6312H105.85V20.2766H107.093L110.168 17.6312H122.206V26.2253H111.018L107.943 28.7381V50.8834H97.5378Z" stroke="white" stroke-width="2" mask="url(#path-3-inside-2_33_4)"/>
<path d="M126.131 12.409V4.60541H136.794V12.4045H126.131V12.409ZM126.262 50.8834V17.6312H136.668V50.8834H126.262Z" stroke="white" stroke-width="2" mask="url(#path-3-inside-2_33_4)"/>
<path d="M146.806 50.8834V12.674H140.263V4.60541H157.212V50.8788H146.806V50.8834Z" stroke="white" stroke-width="2" mask="url(#path-3-inside-2_33_4)"/>
<path d="M166.5 50.8834V4.60541H176.906V19.6095H177.561L179.981 17.6267H193.85L201.113 24.9643V50.8788H190.707V28.4686L188.482 26.2207H180.239L176.901 28.93V50.8788H166.496L166.5 50.8834Z" stroke="white" stroke-width="2" mask="url(#path-3-inside-2_33_4)"/>
<path d="M213.806 50.8834L207.787 44.8023V36.3407L214.005 30.0585H232.193V27.9432L230.294 25.9603H212.237V17.6312H235.856L242.594 24.4388V50.8834H234.283V48.1741H233.233L230.027 50.8834H213.802H213.806ZM229.182 42.9519L232.193 40.5075V36.8067H219.825L218.188 38.4607V41.764L219.364 42.9519H229.182Z" stroke="white" stroke-width="2" mask="url(#path-3-inside-2_33_4)"/>
<path d="M250.449 50.8834V42.9519H271.454L272.63 41.764V39.4521L271.454 38.1957H255.948L249.929 32.1785V23.6484L255.948 17.6312H281.204V25.5628H261.51L260.335 26.7507V29.0625L261.51 30.2504H277.017L283.036 36.3316V44.7931L277.017 50.8743H250.454L250.449 50.8834Z" stroke="white" stroke-width="2" mask="url(#path-3-inside-2_33_4)"/>
<path d="M39.8535 7.11828H7.46152L0 15.2463L0.393425 47.7766L7.65597 54.7213H38.8722L47.1206 47.7766L47.514 14.8488L39.8581 7.11371L39.8535 7.11828ZM41.2464 44.8936L39.6817 46.2095H35.0103L33.5994 44.8662L33.5904 44.1169H16.0717L12.0198 40.0232V33.3253L16.0717 29.2316H28.598L30.8093 26.9974V23.4611L28.598 21.2269H13.9191L13.9101 22.0996L12.3454 23.42H7.67406L6.26315 22.0722L6.20436 17.1743L7.61527 15.6346H12.5127L13.9643 17.1058L13.9553 18.0653H30.2576L34.3094 22.159V28.2995L30.2576 32.3932H17.7313L15.52 34.6274V38.7211L17.7313 40.9553H33.5542L33.5452 39.9684L34.9561 38.4287H39.849L41.3051 39.8953L41.2464 44.8936Z" stroke="white" stroke-width="2" mask="url(#path-3-inside-2_33_4)"/>
</svg>
