<svg width="1092" height="325" viewBox="0 0 1092 325" fill="none" xmlns="http://www.w3.org/2000/svg">
<rect width="1092" height="325" rx="20" fill="#2135A6"/>
<path d="M83.32 124V94.2H87.24V120.4H100.32V124H83.32ZM114.526 124.48C112.446 124.48 110.566 124 108.886 123.04C107.206 122.053 105.873 120.707 104.886 119C103.9 117.293 103.406 115.36 103.406 113.2C103.406 111.04 103.886 109.12 104.846 107.44C105.833 105.76 107.166 104.427 108.846 103.44C110.526 102.453 112.42 101.96 114.526 101.96C116.606 101.96 118.486 102.453 120.166 103.44C121.846 104.4 123.166 105.72 124.126 107.4C125.113 109.08 125.606 111.013 125.606 113.2C125.606 115.387 125.1 117.333 124.086 119.04C123.073 120.72 121.726 122.053 120.046 123.04C118.393 124 116.553 124.48 114.526 124.48ZM114.526 120.88C115.86 120.88 117.06 120.547 118.126 119.88C119.22 119.213 120.073 118.293 120.686 117.12C121.326 115.947 121.646 114.64 121.646 113.2C121.646 111.733 121.326 110.44 120.686 109.32C120.073 108.173 119.22 107.267 118.126 106.6C117.06 105.907 115.86 105.56 114.526 105.56C113.166 105.56 111.94 105.907 110.846 106.6C109.78 107.267 108.926 108.173 108.286 109.32C107.646 110.44 107.326 111.733 107.326 113.2C107.326 114.64 107.646 115.947 108.286 117.12C108.926 118.293 109.78 119.213 110.846 119.88C111.94 120.547 113.166 120.88 114.526 120.88ZM140.738 132.8C139.218 132.8 137.805 132.56 136.498 132.08C135.218 131.6 134.111 130.933 133.178 130.08C132.271 129.253 131.578 128.28 131.098 127.16L134.578 125.56C134.951 126.573 135.658 127.427 136.698 128.12C137.765 128.84 139.098 129.2 140.698 129.2C141.925 129.2 143.031 128.96 144.018 128.48C145.031 128.027 145.831 127.333 146.418 126.4C147.005 125.493 147.298 124.387 147.298 123.08V118.24L147.978 118.96C147.231 120.427 146.151 121.547 144.738 122.32C143.351 123.093 141.818 123.48 140.138 123.48C138.111 123.48 136.298 123.013 134.698 122.08C133.098 121.12 131.845 119.827 130.938 118.2C130.031 116.547 129.578 114.72 129.578 112.72C129.578 110.693 130.031 108.867 130.938 107.24C131.845 105.613 133.085 104.333 134.658 103.4C136.258 102.44 138.071 101.96 140.098 101.96C141.778 101.96 143.298 102.347 144.658 103.12C146.045 103.867 147.151 104.907 147.978 106.24L147.418 107.24V102.44H151.058V123.08C151.058 124.947 150.618 126.613 149.738 128.08C148.858 129.547 147.631 130.693 146.058 131.52C144.511 132.373 142.738 132.8 140.738 132.8ZM140.458 119.88C141.738 119.88 142.885 119.56 143.898 118.92C144.938 118.28 145.765 117.427 146.378 116.36C146.991 115.267 147.298 114.053 147.298 112.72C147.298 111.413 146.991 110.213 146.378 109.12C145.765 108.027 144.938 107.16 143.898 106.52C142.885 105.88 141.738 105.56 140.458 105.56C139.151 105.56 137.965 105.88 136.898 106.52C135.831 107.16 134.991 108.027 134.378 109.12C133.791 110.187 133.498 111.387 133.498 112.72C133.498 114.053 133.791 115.267 134.378 116.36C134.991 117.427 135.818 118.28 136.858 118.92C137.925 119.56 139.125 119.88 140.458 119.88ZM167.065 124.48C164.985 124.48 163.105 124 161.425 123.04C159.745 122.053 158.412 120.707 157.425 119C156.439 117.293 155.945 115.36 155.945 113.2C155.945 111.04 156.425 109.12 157.385 107.44C158.372 105.76 159.705 104.427 161.385 103.44C163.065 102.453 164.959 101.96 167.065 101.96C169.145 101.96 171.025 102.453 172.705 103.44C174.385 104.4 175.705 105.72 176.665 107.4C177.652 109.08 178.145 111.013 178.145 113.2C178.145 115.387 177.639 117.333 176.625 119.04C175.612 120.72 174.265 122.053 172.585 123.04C170.932 124 169.092 124.48 167.065 124.48ZM167.065 120.88C168.399 120.88 169.599 120.547 170.665 119.88C171.759 119.213 172.612 118.293 173.225 117.12C173.865 115.947 174.185 114.64 174.185 113.2C174.185 111.733 173.865 110.44 173.225 109.32C172.612 108.173 171.759 107.267 170.665 106.6C169.599 105.907 168.399 105.56 167.065 105.56C165.705 105.56 164.479 105.907 163.385 106.6C162.319 107.267 161.465 108.173 160.825 109.32C160.185 110.44 159.865 111.733 159.865 113.2C159.865 114.64 160.185 115.947 160.825 117.12C161.465 118.293 162.319 119.213 163.385 119.88C164.479 120.547 165.705 120.88 167.065 120.88ZM190.717 124.48C188.557 124.48 186.677 123.947 185.077 122.88C183.477 121.813 182.344 120.373 181.677 118.56L184.637 117.12C185.251 118.4 186.091 119.413 187.157 120.16C188.224 120.907 189.411 121.28 190.717 121.28C191.891 121.28 192.864 121 193.637 120.44C194.411 119.88 194.797 119.147 194.797 118.24C194.797 117.6 194.611 117.093 194.237 116.72C193.891 116.32 193.464 116.013 192.957 115.8C192.451 115.56 191.984 115.387 191.557 115.28L188.317 114.36C186.371 113.8 184.944 113 184.037 111.96C183.157 110.92 182.717 109.707 182.717 108.32C182.717 107.04 183.037 105.933 183.677 105C184.344 104.04 185.237 103.293 186.357 102.76C187.504 102.227 188.784 101.96 190.197 101.96C192.091 101.96 193.784 102.44 195.277 103.4C196.797 104.36 197.877 105.707 198.517 107.44L195.477 108.84C194.997 107.72 194.277 106.84 193.317 106.2C192.357 105.533 191.277 105.2 190.077 105.2C188.984 105.2 188.117 105.48 187.477 106.04C186.837 106.573 186.517 107.253 186.517 108.08C186.517 108.693 186.677 109.2 186.997 109.6C187.317 109.973 187.704 110.267 188.157 110.48C188.611 110.667 189.051 110.827 189.477 110.96L192.997 112C194.757 112.507 196.117 113.293 197.077 114.36C198.064 115.427 198.557 116.707 198.557 118.2C198.557 119.4 198.224 120.48 197.557 121.44C196.891 122.4 195.971 123.147 194.797 123.68C193.624 124.213 192.264 124.48 190.717 124.48Z" fill="white"/>
<mask id="path-3-inside-1_22_1760" fill="white">
<path d="M565.519 222.51C564.918 222.51 564.312 222.448 563.724 222.524C562.661 222.658 562.127 222.206 561.761 221.233C559.943 216.374 558.067 211.537 556.217 206.691C555.385 204.513 554.58 202.325 553.725 200.155C552.599 197.309 550.017 195.955 547.34 196.807C545.658 197.34 544.645 198.587 543.98 200.138C541.755 205.342 539.549 210.56 537.324 215.764C535.935 219.014 533.729 221.43 530.129 222.188C525.019 223.264 519.999 221.704 517.77 216.199C514.5 208.13 511.339 200.021 508.124 191.93C507.817 191.159 508.002 190.84 508.87 190.863C510.349 190.899 511.832 190.908 513.316 190.863C514.157 190.84 514.546 191.239 514.821 191.966C516.373 196.063 517.951 200.146 519.52 204.239C520.655 207.202 521.808 210.156 522.912 213.128C523.766 215.432 525.372 216.791 527.841 216.961C529.125 217.051 530.45 216.683 531.133 215.522C532.444 213.299 533.706 211.035 534.764 208.69C536.365 205.149 537.78 201.523 539.273 197.932C540.842 194.144 543.564 191.647 547.684 190.979C551.681 190.334 555.833 191.746 557.976 195.65C559.496 198.416 560.594 201.415 561.779 204.351C564.045 209.972 566.243 215.625 568.458 221.269C568.938 222.484 568.915 222.506 567.599 222.51C567.504 222.51 567.409 222.51 567.314 222.51C566.713 222.51 566.116 222.51 565.515 222.51H565.519Z"/>
<path d="M470.844 204.315C470.844 208.291 470.857 212.263 470.844 216.239C470.83 219.009 468.985 221.69 466.389 222.322C462.808 223.192 459.339 222.995 456.604 220.112C455.844 219.31 455.242 218.315 454.754 217.315C451.656 211.021 448.613 204.705 445.551 198.394C445.443 198.17 445.316 197.95 445.199 197.735C444.828 197.071 444.222 196.82 443.521 197.004C442.811 197.192 442.341 197.694 442.255 198.461C442.232 198.676 442.255 198.9 442.255 199.12C442.255 206.503 442.255 213.89 442.255 221.273C442.255 222.546 442.115 222.69 440.858 222.694C439.786 222.694 438.709 222.681 437.638 222.699C436.973 222.708 436.643 222.398 436.607 221.762C436.593 221.542 436.589 221.323 436.589 221.107C436.589 213.505 436.589 205.902 436.589 198.295C436.589 196.054 437.199 194.032 438.931 192.486C440.803 190.814 443.105 190.728 445.411 190.979C448.491 191.32 450.526 193.145 451.864 195.83C455.025 202.155 458.182 208.484 461.374 214.796C461.641 215.325 462.062 215.885 462.559 216.172C463.839 216.898 465.123 216.154 465.286 214.693C465.318 214.415 465.295 214.128 465.295 213.85C465.295 206.651 465.295 199.456 465.295 192.257C465.295 191.069 465.453 190.912 466.656 190.908C467.665 190.903 468.678 190.903 469.686 190.908C470.482 190.912 470.866 191.253 470.857 192.114C470.826 196.179 470.844 200.25 470.844 204.315Z"/>
<path d="M474.394 206.463C474.1 202.338 475.551 198.748 478.215 195.601C480.272 193.167 482.986 191.782 486.074 191.145C489.932 190.352 493.812 190.253 497.606 191.473C503.204 193.27 506.636 197.134 507.74 202.809C508.459 206.507 508.436 210.255 506.799 213.819C504.656 218.49 501.106 221.542 495.991 222.336C491.41 223.048 486.739 223.192 482.42 221.009C477.876 218.718 475.307 214.957 474.556 209.968C474.507 209.627 474.407 209.291 474.398 208.95C474.376 208.139 474.389 207.323 474.389 206.463H474.394ZM491.171 217.759C497.447 218.449 502.652 213.034 502.426 206.364C502.254 201.254 498.393 195.664 491.003 195.758C484.826 195.839 480.15 200.371 479.924 206.35C479.689 212.492 484.32 218.382 491.171 217.763V217.759Z"/>
<path d="M426.26 206.709C426.26 201.832 426.278 196.955 426.242 192.078C426.237 191.208 426.468 190.814 427.395 190.858C428.557 190.917 429.724 190.894 430.891 190.881C431.587 190.872 431.836 191.222 431.827 191.871C431.809 192.902 431.827 193.934 431.827 194.965C431.827 203.688 431.827 212.411 431.827 221.134C431.827 222.484 431.8 222.51 430.448 222.51C429.407 222.51 428.363 222.466 427.327 222.524C426.486 222.569 426.242 222.241 426.247 221.435C426.274 216.526 426.26 211.618 426.26 206.709Z"/>
<path d="M445.253 230.023V238.231H441.861V224.895C443.01 224.895 444.168 224.864 445.316 224.922C445.556 224.936 445.854 225.227 445.99 225.469C447.541 228.141 449.101 230.803 450.571 233.52C451.001 234.313 451.145 235.255 451.457 236.241C452.507 232.22 455.089 229.109 456.907 225.603C457.196 225.048 457.571 224.855 458.182 224.882C459.15 224.922 460.122 224.891 461.144 224.891V238.222H457.806V230.153C457.612 230.207 457.508 230.221 457.503 230.243C457.35 232.498 455.952 234.197 454.849 236.021C453.37 238.46 453.37 238.446 450.499 238.33C449.875 238.303 449.445 238.119 449.115 237.554C448.486 236.478 447.699 235.488 447.134 234.381C446.442 233.022 445.913 231.579 445.248 230.023H445.253Z"/>
<path d="M544.039 238.28C542.714 238.28 541.389 238.334 540.069 238.267C538.658 238.195 537.532 237.478 536.781 236.33C534.891 233.426 534.864 229.521 536.948 226.675C537.826 225.478 539.105 224.895 540.616 224.891C542.7 224.882 544.781 224.891 546.865 224.891C549.809 224.891 551.464 226.128 552.287 228.948C553.033 231.494 552.812 233.937 551.406 236.214C550.555 237.595 549.262 238.271 547.63 238.285C546.431 238.294 545.233 238.285 544.034 238.285L544.039 238.28ZM544.102 227.952C543.315 227.952 542.524 227.943 541.737 227.952C540.503 227.961 539.526 228.558 539.277 229.71C539.065 230.696 538.924 231.772 539.092 232.753C539.386 234.479 540.091 235.313 542.09 235.268C543.605 235.232 545.115 235.259 546.63 235.237C547.598 235.219 548.33 234.775 548.706 233.878C549.325 232.408 549.334 230.911 548.751 229.427C548.367 228.45 547.607 227.979 546.562 227.961C545.744 227.948 544.921 227.961 544.102 227.961V227.952Z"/>
<path d="M475.384 238.245V228.71H477.98C478.02 229.109 478.061 229.526 478.129 230.234C478.997 228.531 480.39 228.634 481.774 228.638C485.052 228.656 488.335 228.643 491.614 228.643C494.192 228.643 495.557 229.759 495.761 232.323C495.914 234.246 495.792 236.187 495.792 238.2H493.183C493.156 237.85 493.124 237.491 493.084 237.003C491.239 239.155 488.824 238.186 486.635 238.24C485.509 238.267 484.962 237.348 484.713 236.272C484.333 234.618 485.229 232.592 487.408 232.749C489.1 232.87 490.804 232.771 492.491 232.771C492.69 231.843 492.279 231.521 491.496 231.521C487.68 231.521 483.863 231.521 480.046 231.521C479.309 231.521 478.803 231.857 478.758 232.596C478.672 234.058 478.653 235.524 478.613 236.989C478.599 237.411 478.613 237.832 478.613 238.245H475.384ZM492.518 234.34C491.198 234.34 489.941 234.309 488.684 234.367C488.412 234.381 488.159 234.721 487.901 234.909C488.141 235.102 488.372 235.447 488.62 235.461C489.624 235.519 490.633 235.492 491.637 235.461C492.274 235.443 492.618 235.111 492.518 234.34Z"/>
<path d="M510.43 224.523H513.623V230.01C515.201 228.203 517.069 228.454 518.873 228.867C520.352 229.203 521.256 230.31 521.388 231.803C521.55 233.699 521.532 235.609 521.6 237.514C521.618 238.061 521.388 238.325 520.822 238.316C520.035 238.303 519.253 238.316 518.322 238.316C518.322 236.774 518.335 235.286 518.313 233.793C518.304 233.336 518.258 232.856 518.109 232.422C517.729 231.296 517.024 231.494 514.948 231.556C514.066 231.583 513.65 232.224 513.65 233.094C513.65 234.439 513.65 235.784 513.65 237.128C513.65 237.469 513.65 237.805 513.65 238.285H510.44V224.523H510.43Z"/>
<path d="M470.355 232.776C470.464 231.852 470.057 231.512 469.225 231.521C467.271 231.534 465.313 231.521 463.278 231.521V228.661C465.661 228.661 468.026 228.535 470.373 228.701C472.232 228.831 473.426 230.212 473.611 232.381C473.774 234.3 473.647 236.241 473.647 238.231H470.998C470.966 237.828 470.939 237.433 470.903 236.972C469.017 239.177 466.53 238.28 464.255 238.227C463.066 238.2 462.32 236.712 462.451 235.147C462.564 233.775 463.5 232.794 464.766 232.78C466.625 232.762 468.483 232.776 470.351 232.776H470.355ZM470.369 234.34C469.053 234.34 467.796 234.309 466.539 234.363C466.263 234.376 466.005 234.694 465.738 234.869C465.996 235.075 466.24 235.438 466.512 235.456C467.448 235.528 468.397 235.483 469.338 235.474C470.016 235.47 470.383 235.143 470.369 234.331V234.34Z"/>
<path d="M505.438 238.258C505.438 237.613 505.456 236.972 505.438 236.33C505.393 235.057 505.492 233.748 505.221 232.525C504.85 230.826 503.326 231.704 502.291 231.543C501.535 231.426 501.006 231.821 500.952 232.632C500.871 233.874 500.816 235.116 500.767 236.357C500.744 236.949 500.767 237.541 500.767 238.209H497.542V228.714H500.134C500.201 229.037 500.265 229.338 500.333 229.656C502.444 228.365 504.611 228.221 506.822 229.212C507.957 229.719 508.481 230.687 508.536 231.906C508.631 233.991 508.721 236.075 508.816 238.258H505.438Z"/>
<path d="M530.83 232.776C530.789 232.332 530.757 231.978 530.717 231.57C531.675 231.287 532.625 231.005 533.62 230.709C534.488 233.197 533.964 235.698 534.117 238.227H531.472C531.413 237.855 531.354 237.474 531.259 236.855C530.491 238.267 529.328 238.366 528.103 238.339C527.063 238.316 526.023 238.343 524.983 238.294C523.911 238.245 523.178 237.541 523.07 236.483C523.011 235.932 523.007 235.367 523.061 234.815C523.196 233.466 523.983 232.789 525.372 232.785C527.162 232.776 528.958 232.785 530.834 232.785L530.83 232.776ZM530.776 234.34C529.491 234.34 528.207 234.313 526.923 234.363C526.66 234.372 526.412 234.654 526.154 234.811C526.389 235.039 526.611 235.447 526.864 235.461C527.868 235.528 528.881 235.497 529.885 235.461C530.522 235.438 530.866 235.107 530.776 234.34Z"/>
<path d="M531.16 228.732C530.988 229.548 530.861 230.31 530.644 231.05C530.586 231.247 530.265 231.498 530.061 231.503C527.958 231.534 525.855 231.525 523.689 231.525V228.737H531.16V228.732Z"/>
</mask>
<path d="M565.519 222.51C564.918 222.51 564.312 222.448 563.724 222.524C562.661 222.658 562.127 222.206 561.761 221.233C559.943 216.374 558.067 211.537 556.217 206.691C555.385 204.513 554.58 202.325 553.725 200.155C552.599 197.309 550.017 195.955 547.34 196.807C545.658 197.34 544.645 198.587 543.98 200.138C541.755 205.342 539.549 210.56 537.324 215.764C535.935 219.014 533.729 221.43 530.129 222.188C525.019 223.264 519.999 221.704 517.77 216.199C514.5 208.13 511.339 200.021 508.124 191.93C507.817 191.159 508.002 190.84 508.87 190.863C510.349 190.899 511.832 190.908 513.316 190.863C514.157 190.84 514.546 191.239 514.821 191.966C516.373 196.063 517.951 200.146 519.52 204.239C520.655 207.202 521.808 210.156 522.912 213.128C523.766 215.432 525.372 216.791 527.841 216.961C529.125 217.051 530.45 216.683 531.133 215.522C532.444 213.299 533.706 211.035 534.764 208.69C536.365 205.149 537.78 201.523 539.273 197.932C540.842 194.144 543.564 191.647 547.684 190.979C551.681 190.334 555.833 191.746 557.976 195.65C559.496 198.416 560.594 201.415 561.779 204.351C564.045 209.972 566.243 215.625 568.458 221.269C568.938 222.484 568.915 222.506 567.599 222.51C567.504 222.51 567.409 222.51 567.314 222.51C566.713 222.51 566.116 222.51 565.515 222.51H565.519Z" fill="white"/>
<path d="M470.844 204.315C470.844 208.291 470.857 212.263 470.844 216.239C470.83 219.009 468.985 221.69 466.389 222.322C462.808 223.192 459.339 222.995 456.604 220.112C455.844 219.31 455.242 218.315 454.754 217.315C451.656 211.021 448.613 204.705 445.551 198.394C445.443 198.17 445.316 197.95 445.199 197.735C444.828 197.071 444.222 196.82 443.521 197.004C442.811 197.192 442.341 197.694 442.255 198.461C442.232 198.676 442.255 198.9 442.255 199.12C442.255 206.503 442.255 213.89 442.255 221.273C442.255 222.546 442.115 222.69 440.858 222.694C439.786 222.694 438.709 222.681 437.638 222.699C436.973 222.708 436.643 222.398 436.607 221.762C436.593 221.542 436.589 221.323 436.589 221.107C436.589 213.505 436.589 205.902 436.589 198.295C436.589 196.054 437.199 194.032 438.931 192.486C440.803 190.814 443.105 190.728 445.411 190.979C448.491 191.32 450.526 193.145 451.864 195.83C455.025 202.155 458.182 208.484 461.374 214.796C461.641 215.325 462.062 215.885 462.559 216.172C463.839 216.898 465.123 216.154 465.286 214.693C465.318 214.415 465.295 214.128 465.295 213.85C465.295 206.651 465.295 199.456 465.295 192.257C465.295 191.069 465.453 190.912 466.656 190.908C467.665 190.903 468.678 190.903 469.686 190.908C470.482 190.912 470.866 191.253 470.857 192.114C470.826 196.179 470.844 200.25 470.844 204.315Z" fill="white"/>
<path d="M474.394 206.463C474.1 202.338 475.551 198.748 478.215 195.601C480.272 193.167 482.986 191.782 486.074 191.145C489.932 190.352 493.812 190.253 497.606 191.473C503.204 193.27 506.636 197.134 507.74 202.809C508.459 206.507 508.436 210.255 506.799 213.819C504.656 218.49 501.106 221.542 495.991 222.336C491.41 223.048 486.739 223.192 482.42 221.009C477.876 218.718 475.307 214.957 474.556 209.968C474.507 209.627 474.407 209.291 474.398 208.95C474.376 208.139 474.389 207.323 474.389 206.463H474.394ZM491.171 217.759C497.447 218.449 502.652 213.034 502.426 206.364C502.254 201.254 498.393 195.664 491.003 195.758C484.826 195.839 480.15 200.371 479.924 206.35C479.689 212.492 484.32 218.382 491.171 217.763V217.759Z" fill="white"/>
<path d="M426.26 206.709C426.26 201.832 426.278 196.955 426.242 192.078C426.237 191.208 426.468 190.814 427.395 190.858C428.557 190.917 429.724 190.894 430.891 190.881C431.587 190.872 431.836 191.222 431.827 191.871C431.809 192.902 431.827 193.934 431.827 194.965C431.827 203.688 431.827 212.411 431.827 221.134C431.827 222.484 431.8 222.51 430.448 222.51C429.407 222.51 428.363 222.466 427.327 222.524C426.486 222.569 426.242 222.241 426.247 221.435C426.274 216.526 426.26 211.618 426.26 206.709Z" fill="white"/>
<path d="M445.253 230.023V238.231H441.861V224.895C443.01 224.895 444.168 224.864 445.316 224.922C445.556 224.936 445.854 225.227 445.99 225.469C447.541 228.141 449.101 230.803 450.571 233.52C451.001 234.313 451.145 235.255 451.457 236.241C452.507 232.22 455.089 229.109 456.907 225.603C457.196 225.048 457.571 224.855 458.182 224.882C459.15 224.922 460.122 224.891 461.144 224.891V238.222H457.806V230.153C457.612 230.207 457.508 230.221 457.503 230.243C457.35 232.498 455.952 234.197 454.849 236.021C453.37 238.46 453.37 238.446 450.499 238.33C449.875 238.303 449.445 238.119 449.115 237.554C448.486 236.478 447.699 235.488 447.134 234.381C446.442 233.022 445.913 231.579 445.248 230.023H445.253Z" fill="white"/>
<path d="M544.039 238.28C542.714 238.28 541.389 238.334 540.069 238.267C538.658 238.195 537.532 237.478 536.781 236.33C534.891 233.426 534.864 229.521 536.948 226.675C537.826 225.478 539.105 224.895 540.616 224.891C542.7 224.882 544.781 224.891 546.865 224.891C549.809 224.891 551.464 226.128 552.287 228.948C553.033 231.494 552.812 233.937 551.406 236.214C550.555 237.595 549.262 238.271 547.63 238.285C546.431 238.294 545.233 238.285 544.034 238.285L544.039 238.28ZM544.102 227.952C543.315 227.952 542.524 227.943 541.737 227.952C540.503 227.961 539.526 228.558 539.277 229.71C539.065 230.696 538.924 231.772 539.092 232.753C539.386 234.479 540.091 235.313 542.09 235.268C543.605 235.232 545.115 235.259 546.63 235.237C547.598 235.219 548.33 234.775 548.706 233.878C549.325 232.408 549.334 230.911 548.751 229.427C548.367 228.45 547.607 227.979 546.562 227.961C545.744 227.948 544.921 227.961 544.102 227.961V227.952Z" fill="white"/>
<path d="M475.384 238.245V228.71H477.98C478.02 229.109 478.061 229.526 478.129 230.234C478.997 228.531 480.39 228.634 481.774 228.638C485.052 228.656 488.335 228.643 491.614 228.643C494.192 228.643 495.557 229.759 495.761 232.323C495.914 234.246 495.792 236.187 495.792 238.2H493.183C493.156 237.85 493.124 237.491 493.084 237.003C491.239 239.155 488.824 238.186 486.635 238.24C485.509 238.267 484.962 237.348 484.713 236.272C484.333 234.618 485.229 232.592 487.408 232.749C489.1 232.87 490.804 232.771 492.491 232.771C492.69 231.843 492.279 231.521 491.496 231.521C487.68 231.521 483.863 231.521 480.046 231.521C479.309 231.521 478.803 231.857 478.758 232.596C478.672 234.058 478.653 235.524 478.613 236.989C478.599 237.411 478.613 237.832 478.613 238.245H475.384ZM492.518 234.34C491.198 234.34 489.941 234.309 488.684 234.367C488.412 234.381 488.159 234.721 487.901 234.909C488.141 235.102 488.372 235.447 488.62 235.461C489.624 235.519 490.633 235.492 491.637 235.461C492.274 235.443 492.618 235.111 492.518 234.34Z" fill="white"/>
<path d="M510.43 224.523H513.623V230.01C515.201 228.203 517.069 228.454 518.873 228.867C520.352 229.203 521.256 230.31 521.388 231.803C521.55 233.699 521.532 235.609 521.6 237.514C521.618 238.061 521.388 238.325 520.822 238.316C520.035 238.303 519.253 238.316 518.322 238.316C518.322 236.774 518.335 235.286 518.313 233.793C518.304 233.336 518.258 232.856 518.109 232.422C517.729 231.296 517.024 231.494 514.948 231.556C514.066 231.583 513.65 232.224 513.65 233.094C513.65 234.439 513.65 235.784 513.65 237.128C513.65 237.469 513.65 237.805 513.65 238.285H510.44V224.523H510.43Z" fill="white"/>
<path d="M470.355 232.776C470.464 231.852 470.057 231.512 469.225 231.521C467.271 231.534 465.313 231.521 463.278 231.521V228.661C465.661 228.661 468.026 228.535 470.373 228.701C472.232 228.831 473.426 230.212 473.611 232.381C473.774 234.3 473.647 236.241 473.647 238.231H470.998C470.966 237.828 470.939 237.433 470.903 236.972C469.017 239.177 466.53 238.28 464.255 238.227C463.066 238.2 462.32 236.712 462.451 235.147C462.564 233.775 463.5 232.794 464.766 232.78C466.625 232.762 468.483 232.776 470.351 232.776H470.355ZM470.369 234.34C469.053 234.34 467.796 234.309 466.539 234.363C466.263 234.376 466.005 234.694 465.738 234.869C465.996 235.075 466.24 235.438 466.512 235.456C467.448 235.528 468.397 235.483 469.338 235.474C470.016 235.47 470.383 235.143 470.369 234.331V234.34Z" fill="white"/>
<path d="M505.438 238.258C505.438 237.613 505.456 236.972 505.438 236.33C505.393 235.057 505.492 233.748 505.221 232.525C504.85 230.826 503.326 231.704 502.291 231.543C501.535 231.426 501.006 231.821 500.952 232.632C500.871 233.874 500.816 235.116 500.767 236.357C500.744 236.949 500.767 237.541 500.767 238.209H497.542V228.714H500.134C500.201 229.037 500.265 229.338 500.333 229.656C502.444 228.365 504.611 228.221 506.822 229.212C507.957 229.719 508.481 230.687 508.536 231.906C508.631 233.991 508.721 236.075 508.816 238.258H505.438Z" fill="white"/>
<path d="M530.83 232.776C530.789 232.332 530.757 231.978 530.717 231.57C531.675 231.287 532.625 231.005 533.62 230.709C534.488 233.197 533.964 235.698 534.117 238.227H531.472C531.413 237.855 531.354 237.474 531.259 236.855C530.491 238.267 529.328 238.366 528.103 238.339C527.063 238.316 526.023 238.343 524.983 238.294C523.911 238.245 523.178 237.541 523.07 236.483C523.011 235.932 523.007 235.367 523.061 234.815C523.196 233.466 523.983 232.789 525.372 232.785C527.162 232.776 528.958 232.785 530.834 232.785L530.83 232.776ZM530.776 234.34C529.491 234.34 528.207 234.313 526.923 234.363C526.66 234.372 526.412 234.654 526.154 234.811C526.389 235.039 526.611 235.447 526.864 235.461C527.868 235.528 528.881 235.497 529.885 235.461C530.522 235.438 530.866 235.107 530.776 234.34Z" fill="white"/>
<path d="M531.16 228.732C530.988 229.548 530.861 230.31 530.644 231.05C530.586 231.247 530.265 231.498 530.061 231.503C527.958 231.534 525.855 231.525 523.689 231.525V228.737H531.16V228.732Z" fill="white"/>
<path d="M565.519 222.51C564.918 222.51 564.312 222.448 563.724 222.524C562.661 222.658 562.127 222.206 561.761 221.233C559.943 216.374 558.067 211.537 556.217 206.691C555.385 204.513 554.58 202.325 553.725 200.155C552.599 197.309 550.017 195.955 547.34 196.807C545.658 197.34 544.645 198.587 543.98 200.138C541.755 205.342 539.549 210.56 537.324 215.764C535.935 219.014 533.729 221.43 530.129 222.188C525.019 223.264 519.999 221.704 517.77 216.199C514.5 208.13 511.339 200.021 508.124 191.93C507.817 191.159 508.002 190.84 508.87 190.863C510.349 190.899 511.832 190.908 513.316 190.863C514.157 190.84 514.546 191.239 514.821 191.966C516.373 196.063 517.951 200.146 519.52 204.239C520.655 207.202 521.808 210.156 522.912 213.128C523.766 215.432 525.372 216.791 527.841 216.961C529.125 217.051 530.45 216.683 531.133 215.522C532.444 213.299 533.706 211.035 534.764 208.69C536.365 205.149 537.78 201.523 539.273 197.932C540.842 194.144 543.564 191.647 547.684 190.979C551.681 190.334 555.833 191.746 557.976 195.65C559.496 198.416 560.594 201.415 561.779 204.351C564.045 209.972 566.243 215.625 568.458 221.269C568.938 222.484 568.915 222.506 567.599 222.51C567.504 222.51 567.409 222.51 567.314 222.51C566.713 222.51 566.116 222.51 565.515 222.51H565.519Z" stroke="white" stroke-width="2" mask="url(#path-3-inside-1_22_1760)"/>
<path d="M470.844 204.315C470.844 208.291 470.857 212.263 470.844 216.239C470.83 219.009 468.985 221.69 466.389 222.322C462.808 223.192 459.339 222.995 456.604 220.112C455.844 219.31 455.242 218.315 454.754 217.315C451.656 211.021 448.613 204.705 445.551 198.394C445.443 198.17 445.316 197.95 445.199 197.735C444.828 197.071 444.222 196.82 443.521 197.004C442.811 197.192 442.341 197.694 442.255 198.461C442.232 198.676 442.255 198.9 442.255 199.12C442.255 206.503 442.255 213.89 442.255 221.273C442.255 222.546 442.115 222.69 440.858 222.694C439.786 222.694 438.709 222.681 437.638 222.699C436.973 222.708 436.643 222.398 436.607 221.762C436.593 221.542 436.589 221.323 436.589 221.107C436.589 213.505 436.589 205.902 436.589 198.295C436.589 196.054 437.199 194.032 438.931 192.486C440.803 190.814 443.105 190.728 445.411 190.979C448.491 191.32 450.526 193.145 451.864 195.83C455.025 202.155 458.182 208.484 461.374 214.796C461.641 215.325 462.062 215.885 462.559 216.172C463.839 216.898 465.123 216.154 465.286 214.693C465.318 214.415 465.295 214.128 465.295 213.85C465.295 206.651 465.295 199.456 465.295 192.257C465.295 191.069 465.453 190.912 466.656 190.908C467.665 190.903 468.678 190.903 469.686 190.908C470.482 190.912 470.866 191.253 470.857 192.114C470.826 196.179 470.844 200.25 470.844 204.315Z" stroke="white" stroke-width="2" mask="url(#path-3-inside-1_22_1760)"/>
<path d="M474.394 206.463C474.1 202.338 475.551 198.748 478.215 195.601C480.272 193.167 482.986 191.782 486.074 191.145C489.932 190.352 493.812 190.253 497.606 191.473C503.204 193.27 506.636 197.134 507.74 202.809C508.459 206.507 508.436 210.255 506.799 213.819C504.656 218.49 501.106 221.542 495.991 222.336C491.41 223.048 486.739 223.192 482.42 221.009C477.876 218.718 475.307 214.957 474.556 209.968C474.507 209.627 474.407 209.291 474.398 208.95C474.376 208.139 474.389 207.323 474.389 206.463H474.394ZM491.171 217.759C497.447 218.449 502.652 213.034 502.426 206.364C502.254 201.254 498.393 195.664 491.003 195.758C484.826 195.839 480.15 200.371 479.924 206.35C479.689 212.492 484.32 218.382 491.171 217.763V217.759Z" stroke="white" stroke-width="2" mask="url(#path-3-inside-1_22_1760)"/>
<path d="M426.26 206.709C426.26 201.832 426.278 196.955 426.242 192.078C426.237 191.208 426.468 190.814 427.395 190.858C428.557 190.917 429.724 190.894 430.891 190.881C431.587 190.872 431.836 191.222 431.827 191.871C431.809 192.902 431.827 193.934 431.827 194.965C431.827 203.688 431.827 212.411 431.827 221.134C431.827 222.484 431.8 222.51 430.448 222.51C429.407 222.51 428.363 222.466 427.327 222.524C426.486 222.569 426.242 222.241 426.247 221.435C426.274 216.526 426.26 211.618 426.26 206.709Z" stroke="white" stroke-width="2" mask="url(#path-3-inside-1_22_1760)"/>
<path d="M445.253 230.023V238.231H441.861V224.895C443.01 224.895 444.168 224.864 445.316 224.922C445.556 224.936 445.854 225.227 445.99 225.469C447.541 228.141 449.101 230.803 450.571 233.52C451.001 234.313 451.145 235.255 451.457 236.241C452.507 232.22 455.089 229.109 456.907 225.603C457.196 225.048 457.571 224.855 458.182 224.882C459.15 224.922 460.122 224.891 461.144 224.891V238.222H457.806V230.153C457.612 230.207 457.508 230.221 457.503 230.243C457.35 232.498 455.952 234.197 454.849 236.021C453.37 238.46 453.37 238.446 450.499 238.33C449.875 238.303 449.445 238.119 449.115 237.554C448.486 236.478 447.699 235.488 447.134 234.381C446.442 233.022 445.913 231.579 445.248 230.023H445.253Z" stroke="white" stroke-width="2" mask="url(#path-3-inside-1_22_1760)"/>
<path d="M544.039 238.28C542.714 238.28 541.389 238.334 540.069 238.267C538.658 238.195 537.532 237.478 536.781 236.33C534.891 233.426 534.864 229.521 536.948 226.675C537.826 225.478 539.105 224.895 540.616 224.891C542.7 224.882 544.781 224.891 546.865 224.891C549.809 224.891 551.464 226.128 552.287 228.948C553.033 231.494 552.812 233.937 551.406 236.214C550.555 237.595 549.262 238.271 547.63 238.285C546.431 238.294 545.233 238.285 544.034 238.285L544.039 238.28ZM544.102 227.952C543.315 227.952 542.524 227.943 541.737 227.952C540.503 227.961 539.526 228.558 539.277 229.71C539.065 230.696 538.924 231.772 539.092 232.753C539.386 234.479 540.091 235.313 542.09 235.268C543.605 235.232 545.115 235.259 546.63 235.237C547.598 235.219 548.33 234.775 548.706 233.878C549.325 232.408 549.334 230.911 548.751 229.427C548.367 228.45 547.607 227.979 546.562 227.961C545.744 227.948 544.921 227.961 544.102 227.961V227.952Z" stroke="white" stroke-width="2" mask="url(#path-3-inside-1_22_1760)"/>
<path d="M475.384 238.245V228.71H477.98C478.02 229.109 478.061 229.526 478.129 230.234C478.997 228.531 480.39 228.634 481.774 228.638C485.052 228.656 488.335 228.643 491.614 228.643C494.192 228.643 495.557 229.759 495.761 232.323C495.914 234.246 495.792 236.187 495.792 238.2H493.183C493.156 237.85 493.124 237.491 493.084 237.003C491.239 239.155 488.824 238.186 486.635 238.24C485.509 238.267 484.962 237.348 484.713 236.272C484.333 234.618 485.229 232.592 487.408 232.749C489.1 232.87 490.804 232.771 492.491 232.771C492.69 231.843 492.279 231.521 491.496 231.521C487.68 231.521 483.863 231.521 480.046 231.521C479.309 231.521 478.803 231.857 478.758 232.596C478.672 234.058 478.653 235.524 478.613 236.989C478.599 237.411 478.613 237.832 478.613 238.245H475.384ZM492.518 234.34C491.198 234.34 489.941 234.309 488.684 234.367C488.412 234.381 488.159 234.721 487.901 234.909C488.141 235.102 488.372 235.447 488.62 235.461C489.624 235.519 490.633 235.492 491.637 235.461C492.274 235.443 492.618 235.111 492.518 234.34Z" stroke="white" stroke-width="2" mask="url(#path-3-inside-1_22_1760)"/>
<path d="M510.43 224.523H513.623V230.01C515.201 228.203 517.069 228.454 518.873 228.867C520.352 229.203 521.256 230.31 521.388 231.803C521.55 233.699 521.532 235.609 521.6 237.514C521.618 238.061 521.388 238.325 520.822 238.316C520.035 238.303 519.253 238.316 518.322 238.316C518.322 236.774 518.335 235.286 518.313 233.793C518.304 233.336 518.258 232.856 518.109 232.422C517.729 231.296 517.024 231.494 514.948 231.556C514.066 231.583 513.65 232.224 513.65 233.094C513.65 234.439 513.65 235.784 513.65 237.128C513.65 237.469 513.65 237.805 513.65 238.285H510.44V224.523H510.43Z" stroke="white" stroke-width="2" mask="url(#path-3-inside-1_22_1760)"/>
<path d="M470.355 232.776C470.464 231.852 470.057 231.512 469.225 231.521C467.271 231.534 465.313 231.521 463.278 231.521V228.661C465.661 228.661 468.026 228.535 470.373 228.701C472.232 228.831 473.426 230.212 473.611 232.381C473.774 234.3 473.647 236.241 473.647 238.231H470.998C470.966 237.828 470.939 237.433 470.903 236.972C469.017 239.177 466.53 238.28 464.255 238.227C463.066 238.2 462.32 236.712 462.451 235.147C462.564 233.775 463.5 232.794 464.766 232.78C466.625 232.762 468.483 232.776 470.351 232.776H470.355ZM470.369 234.34C469.053 234.34 467.796 234.309 466.539 234.363C466.263 234.376 466.005 234.694 465.738 234.869C465.996 235.075 466.24 235.438 466.512 235.456C467.448 235.528 468.397 235.483 469.338 235.474C470.016 235.47 470.383 235.143 470.369 234.331V234.34Z" stroke="white" stroke-width="2" mask="url(#path-3-inside-1_22_1760)"/>
<path d="M505.438 238.258C505.438 237.613 505.456 236.972 505.438 236.33C505.393 235.057 505.492 233.748 505.221 232.525C504.85 230.826 503.326 231.704 502.291 231.543C501.535 231.426 501.006 231.821 500.952 232.632C500.871 233.874 500.816 235.116 500.767 236.357C500.744 236.949 500.767 237.541 500.767 238.209H497.542V228.714H500.134C500.201 229.037 500.265 229.338 500.333 229.656C502.444 228.365 504.611 228.221 506.822 229.212C507.957 229.719 508.481 230.687 508.536 231.906C508.631 233.991 508.721 236.075 508.816 238.258H505.438Z" stroke="white" stroke-width="2" mask="url(#path-3-inside-1_22_1760)"/>
<path d="M530.83 232.776C530.789 232.332 530.757 231.978 530.717 231.57C531.675 231.287 532.625 231.005 533.62 230.709C534.488 233.197 533.964 235.698 534.117 238.227H531.472C531.413 237.855 531.354 237.474 531.259 236.855C530.491 238.267 529.328 238.366 528.103 238.339C527.063 238.316 526.023 238.343 524.983 238.294C523.911 238.245 523.178 237.541 523.07 236.483C523.011 235.932 523.007 235.367 523.061 234.815C523.196 233.466 523.983 232.789 525.372 232.785C527.162 232.776 528.958 232.785 530.834 232.785L530.83 232.776ZM530.776 234.34C529.491 234.34 528.207 234.313 526.923 234.363C526.66 234.372 526.412 234.654 526.154 234.811C526.389 235.039 526.611 235.447 526.864 235.461C527.868 235.528 528.881 235.497 529.885 235.461C530.522 235.438 530.866 235.107 530.776 234.34Z" stroke="white" stroke-width="2" mask="url(#path-3-inside-1_22_1760)"/>
<path d="M531.16 228.732C530.988 229.548 530.861 230.31 530.644 231.05C530.586 231.247 530.265 231.498 530.061 231.503C527.958 231.534 525.855 231.525 523.689 231.525V228.737H531.16V228.732Z" stroke="white" stroke-width="2" mask="url(#path-3-inside-1_22_1760)"/>
<path d="M390.865 184V245" stroke="white" stroke-width="3" stroke-miterlimit="10"/>
<mask id="path-5-inside-2_22_1760" fill="white">
<path d="M155.488 234.883L149.469 228.802V209.764H142.925V201.631H149.469V192.772H159.874V201.631H171.062V209.764H159.874V225.43L160.725 226.289H171.587V234.883H155.488Z"/>
<path d="M177.538 234.883V201.631H185.85V204.277H187.093L190.168 201.631H202.206V210.225H191.018L187.943 212.738V234.883H177.538Z"/>
<path d="M206.131 196.409V188.605H216.794V196.404H206.131V196.409ZM206.262 234.883V201.631H216.668V234.883H206.262Z"/>
<path d="M226.806 234.883V196.674H220.263V188.605H237.212V234.879H226.806V234.883Z"/>
<path d="M246.5 234.883V188.605H256.906V203.61H257.561L259.981 201.627H273.85L281.113 208.964V234.879H270.707V212.469L268.482 210.221H260.239L256.901 212.93V234.879H246.496L246.5 234.883Z"/>
<path d="M293.806 234.883L287.787 228.802V220.341L294.005 214.059H312.193V211.943L310.294 209.96H292.237V201.631H315.856L322.594 208.439V234.883H314.283V232.174H313.233L310.027 234.883H293.802H293.806ZM309.182 226.952L312.193 224.508V220.807H299.825L298.188 222.461V225.764L299.364 226.952H309.182Z"/>
<path d="M330.449 234.883V226.952H351.454L352.63 225.764V223.452L351.454 222.196H335.948L329.929 216.178V207.648L335.948 201.631H361.204V209.563H341.51L340.335 210.751V213.063L341.51 214.25H357.017L363.036 220.332V228.793L357.017 234.874H330.454L330.449 234.883Z"/>
<path d="M119.854 191.118H87.4615L80 199.246L80.3934 231.777L87.656 238.721H118.872L127.121 231.777L127.514 198.849L119.858 191.114L119.854 191.118ZM121.246 228.894L119.682 230.209H115.01L113.599 228.866L113.59 228.117H96.0717L92.0198 224.023V217.325L96.0717 213.232H108.598L110.809 210.997V207.461L108.598 205.227H93.9191L93.9101 206.1L92.3454 207.42H87.6741L86.2632 206.072L86.2044 201.174L87.6153 199.635H92.5127L93.9643 201.106L93.9553 202.065H110.258L114.309 206.159V212.3L110.258 216.393H97.7313L95.52 218.627V222.721L97.7313 224.955H113.554L113.545 223.968L114.956 222.429H119.849L121.305 223.895L121.246 228.894Z"/>
</mask>
<path d="M155.488 234.883L149.469 228.802V209.764H142.925V201.631H149.469V192.772H159.874V201.631H171.062V209.764H159.874V225.43L160.725 226.289H171.587V234.883H155.488Z" fill="white"/>
<path d="M177.538 234.883V201.631H185.85V204.277H187.093L190.168 201.631H202.206V210.225H191.018L187.943 212.738V234.883H177.538Z" fill="white"/>
<path d="M206.131 196.409V188.605H216.794V196.404H206.131V196.409ZM206.262 234.883V201.631H216.668V234.883H206.262Z" fill="white"/>
<path d="M226.806 234.883V196.674H220.263V188.605H237.212V234.879H226.806V234.883Z" fill="white"/>
<path d="M246.5 234.883V188.605H256.906V203.61H257.561L259.981 201.627H273.85L281.113 208.964V234.879H270.707V212.469L268.482 210.221H260.239L256.901 212.93V234.879H246.496L246.5 234.883Z" fill="white"/>
<path d="M293.806 234.883L287.787 228.802V220.341L294.005 214.059H312.193V211.943L310.294 209.96H292.237V201.631H315.856L322.594 208.439V234.883H314.283V232.174H313.233L310.027 234.883H293.802H293.806ZM309.182 226.952L312.193 224.508V220.807H299.825L298.188 222.461V225.764L299.364 226.952H309.182Z" fill="white"/>
<path d="M330.449 234.883V226.952H351.454L352.63 225.764V223.452L351.454 222.196H335.948L329.929 216.178V207.648L335.948 201.631H361.204V209.563H341.51L340.335 210.751V213.063L341.51 214.25H357.017L363.036 220.332V228.793L357.017 234.874H330.454L330.449 234.883Z" fill="white"/>
<path d="M119.854 191.118H87.4615L80 199.246L80.3934 231.777L87.656 238.721H118.872L127.121 231.777L127.514 198.849L119.858 191.114L119.854 191.118ZM121.246 228.894L119.682 230.209H115.01L113.599 228.866L113.59 228.117H96.0717L92.0198 224.023V217.325L96.0717 213.232H108.598L110.809 210.997V207.461L108.598 205.227H93.9191L93.9101 206.1L92.3454 207.42H87.6741L86.2632 206.072L86.2044 201.174L87.6153 199.635H92.5127L93.9643 201.106L93.9553 202.065H110.258L114.309 206.159V212.3L110.258 216.393H97.7313L95.52 218.627V222.721L97.7313 224.955H113.554L113.545 223.968L114.956 222.429H119.849L121.305 223.895L121.246 228.894Z" fill="white"/>
<path d="M155.488 234.883L149.469 228.802V209.764H142.925V201.631H149.469V192.772H159.874V201.631H171.062V209.764H159.874V225.43L160.725 226.289H171.587V234.883H155.488Z" stroke="white" stroke-width="2" mask="url(#path-5-inside-2_22_1760)"/>
<path d="M177.538 234.883V201.631H185.85V204.277H187.093L190.168 201.631H202.206V210.225H191.018L187.943 212.738V234.883H177.538Z" stroke="white" stroke-width="2" mask="url(#path-5-inside-2_22_1760)"/>
<path d="M206.131 196.409V188.605H216.794V196.404H206.131V196.409ZM206.262 234.883V201.631H216.668V234.883H206.262Z" stroke="white" stroke-width="2" mask="url(#path-5-inside-2_22_1760)"/>
<path d="M226.806 234.883V196.674H220.263V188.605H237.212V234.879H226.806V234.883Z" stroke="white" stroke-width="2" mask="url(#path-5-inside-2_22_1760)"/>
<path d="M246.5 234.883V188.605H256.906V203.61H257.561L259.981 201.627H273.85L281.113 208.964V234.879H270.707V212.469L268.482 210.221H260.239L256.901 212.93V234.879H246.496L246.5 234.883Z" stroke="white" stroke-width="2" mask="url(#path-5-inside-2_22_1760)"/>
<path d="M293.806 234.883L287.787 228.802V220.341L294.005 214.059H312.193V211.943L310.294 209.96H292.237V201.631H315.856L322.594 208.439V234.883H314.283V232.174H313.233L310.027 234.883H293.802H293.806ZM309.182 226.952L312.193 224.508V220.807H299.825L298.188 222.461V225.764L299.364 226.952H309.182Z" stroke="white" stroke-width="2" mask="url(#path-5-inside-2_22_1760)"/>
<path d="M330.449 234.883V226.952H351.454L352.63 225.764V223.452L351.454 222.196H335.948L329.929 216.178V207.648L335.948 201.631H361.204V209.563H341.51L340.335 210.751V213.063L341.51 214.25H357.017L363.036 220.332V228.793L357.017 234.874H330.454L330.449 234.883Z" stroke="white" stroke-width="2" mask="url(#path-5-inside-2_22_1760)"/>
<path d="M119.854 191.118H87.4615L80 199.246L80.3934 231.777L87.656 238.721H118.872L127.121 231.777L127.514 198.849L119.858 191.114L119.854 191.118ZM121.246 228.894L119.682 230.209H115.01L113.599 228.866L113.59 228.117H96.0717L92.0198 224.023V217.325L96.0717 213.232H108.598L110.809 210.997V207.461L108.598 205.227H93.9191L93.9101 206.1L92.3454 207.42H87.6741L86.2632 206.072L86.2044 201.174L87.6153 199.635H92.5127L93.9643 201.106L93.9553 202.065H110.258L114.309 206.159V212.3L110.258 216.393H97.7313L95.52 218.627V222.721L97.7313 224.955H113.554L113.545 223.968L114.956 222.429H119.849L121.305 223.895L121.246 228.894Z" stroke="white" stroke-width="2" mask="url(#path-5-inside-2_22_1760)"/>
</svg>
