<svg width="40" height="40" viewBox="0 0 40 40" fill="none" xmlns="http://www.w3.org/2000/svg">
<path d="M33.2092 32.9H6.79046C5.78374 32.9 4.96484 32.0833 4.96484 31.0793V8.92062C4.96484 7.91664 5.78374 7.09998 6.79046 7.09998H33.2092C34.2159 7.09998 35.0348 7.91664 35.0348 8.92062V31.0756C35.0348 32.0796 34.2159 32.8962 33.2092 32.8962V32.9ZM6.79046 8.22383C6.40355 8.22383 6.09176 8.53477 6.09176 8.92062V31.0756C6.09176 31.4614 6.4073 31.7724 6.79046 31.7724H33.2092C33.5961 31.7724 33.9079 31.4614 33.9079 31.0756V8.92062C33.9079 8.53477 33.5924 8.22383 33.2092 8.22383H6.79046Z" fill="#131C50"/>
<path d="M13.8562 12.7942C14.46 12.7942 14.9494 12.3061 14.9494 11.704C14.9494 11.102 14.46 10.6139 13.8562 10.6139C13.2525 10.6139 12.7631 11.102 12.7631 11.704C12.7631 12.3061 13.2525 12.7942 13.8562 12.7942Z" fill="#131C50"/>
<path d="M10.0923 12.7942C10.696 12.7942 11.1854 12.3061 11.1854 11.704C11.1854 11.102 10.696 10.6139 10.0923 10.6139C9.48862 10.6139 8.99922 11.102 8.99922 11.704C8.99922 12.3061 9.48862 12.7942 10.0923 12.7942Z" fill="#131C50"/>
<path d="M17.3121 12.7942C17.9158 12.7942 18.4053 12.3061 18.4053 11.704C18.4053 11.102 17.9158 10.6139 17.3121 10.6139C16.7084 10.6139 16.219 11.102 16.219 11.704C16.219 12.3061 16.7084 12.7942 17.3121 12.7942Z" fill="#131C50"/>
<path d="M34.4714 14.9108H5.5283V16.0346H34.4714V14.9108Z" fill="#131C50"/>
<path d="M15.2048 18.8068V19.807C14.8817 19.807 14.6601 19.852 14.5437 19.9382C14.4272 20.0243 14.3671 20.2079 14.3671 20.4889V22.1484C14.3746 22.4556 14.3483 22.7103 14.2845 22.9126C14.2206 23.1149 14.1079 23.2723 13.9426 23.3921C13.7774 23.5083 13.5407 23.5944 13.2327 23.6469C13.5407 23.7331 13.7811 23.8417 13.9502 23.9728C14.1192 24.1002 14.2394 24.2575 14.307 24.4411C14.3784 24.6246 14.4122 24.8457 14.4122 25.1004V27.4118C14.4122 27.6815 14.4723 27.8614 14.5887 27.9438C14.7052 28.0262 14.9268 28.0711 15.2499 28.0711V29.0714C14.6827 29.1463 14.2244 29.1238 13.8713 29.0114C13.5182 28.899 13.259 28.7117 13.0937 28.457C12.9284 28.2023 12.8458 27.8913 12.8458 27.5317V24.9131C12.8458 24.737 12.827 24.6059 12.7857 24.5235C12.7444 24.4411 12.6805 24.3736 12.5941 24.3324C12.5077 24.2875 12.3875 24.2388 12.241 24.1788V23.1224C12.395 23.07 12.5115 23.0288 12.5941 22.9913C12.673 22.9538 12.7293 22.8902 12.7594 22.8003C12.7894 22.7103 12.8045 22.5567 12.8045 22.3432V20.354C12.8045 19.9869 12.8871 19.6759 13.0524 19.4249C13.2177 19.1739 13.4769 18.9904 13.83 18.8742C14.1831 18.7619 14.6413 18.7394 15.2086 18.8143L15.2048 18.8068Z" fill="#131C50"/>
<path d="M25.5236 18.8068C26.0984 18.7319 26.5604 18.7544 26.9135 18.8668C27.2666 18.9791 27.522 19.1627 27.6836 19.4174C27.8451 19.6684 27.9277 19.9794 27.9277 20.3465V22.3357C27.9277 22.5493 27.9428 22.6991 27.9728 22.7928C28.0029 22.8864 28.0592 22.9501 28.1456 22.9838C28.2282 23.0213 28.3484 23.0662 28.5025 23.1149V24.1714C28.356 24.2313 28.2358 24.28 28.1456 24.3249C28.0554 24.3699 27.9878 24.4336 27.9465 24.516C27.9052 24.6022 27.8864 24.7295 27.8864 24.9056V27.5242C27.8864 27.8838 27.8038 28.191 27.6422 28.4495C27.4807 28.708 27.2215 28.8916 26.8722 29.0039C26.5191 29.1163 26.057 29.1388 25.4823 29.0639V28.0636C25.8129 28.0636 26.0383 28.0224 26.1547 27.9363C26.2712 27.8501 26.3313 27.674 26.3313 27.4043V25.0929C26.3388 24.8382 26.3763 24.6172 26.4402 24.4336C26.5041 24.25 26.6243 24.0927 26.7933 23.9653C26.9623 23.8379 27.199 23.7293 27.4995 23.6394C27.199 23.587 26.9661 23.5045 26.8008 23.3847C26.6355 23.2685 26.5228 23.1074 26.459 22.9051C26.3951 22.7028 26.3688 22.4481 26.3763 22.1409V20.4814C26.3763 20.2041 26.3162 20.0206 26.1998 19.9307C26.0833 19.8408 25.858 19.7996 25.5274 19.7996V18.7993L25.5236 18.8068Z" fill="#131C50"/>
</svg>
