<svg width="10" height="10" viewBox="0 0 10 10" fill="none" xmlns="http://www.w3.org/2000/svg">
<path fill-rule="evenodd" clip-rule="evenodd" d="M9.87754 1.02028C10.1425 1.50484 9.96454 2.11247 9.47998 2.37747C8.10863 3.12742 6.82076 4.69743 5.83744 6.20314C5.35808 6.93716 4.97349 7.62057 4.70899 8.12027C4.577 8.36962 4.47558 8.57196 4.40788 8.71041C4.37404 8.7796 4.34867 8.83274 4.33216 8.86771L4.3141 8.90624L4.31015 8.91476L4.30965 8.91586C4.15515 9.25356 3.82609 9.47811 3.45528 9.49858C3.08436 9.51905 2.73266 9.33222 2.54197 9.01341C2.23126 8.49394 1.73753 8.01973 1.27997 7.65798C1.05765 7.4822 0.85753 7.34363 0.714718 7.25008C0.643589 7.20349 0.587438 7.16856 0.550786 7.14627C0.53248 7.13513 0.519105 7.12719 0.511229 7.12255L0.504429 7.11857C0.0249384 6.84487 -0.142031 6.23432 0.131511 5.75469C0.405118 5.27494 1.01583 5.10783 1.49558 5.38144L1.00017 6.2501C1.49558 5.38144 1.49539 5.38133 1.49558 5.38144L1.49729 5.38241L1.49959 5.38373L1.50594 5.3874L1.52544 5.39879C1.5414 5.40817 1.56318 5.42114 1.59018 5.43757C1.64416 5.4704 1.71925 5.51721 1.81063 5.57706C1.99281 5.69641 2.2427 5.86955 2.52037 6.08909C2.73257 6.25686 2.96985 6.4586 3.20939 6.69102C3.46624 6.22964 3.78717 5.6849 4.1629 5.10956C5.17959 3.55276 6.69171 1.62277 8.52036 0.622725C9.00492 0.357732 9.61255 0.535726 9.87754 1.02028Z" fill="#8F8881"/>
</svg>
